<svg width="49" height="49" fill="none" xmlns="http://www.w3.org/2000/svg"><g clip-path="url(#a)"><path d="M49 24.762v-.524c-10.85-.35-15.803-.613-19.775-4.463-3.85-3.972-4.13-8.925-4.463-19.775h-.524c-.35 10.85-.613 15.803-4.463 19.775-3.972 3.85-8.925 4.13-19.775 4.463v.524c10.85.35 15.803.613 19.775 4.463 3.85 3.972 4.13 8.925 4.463 19.775h.524c.35-10.85.613-15.803 4.463-19.775 3.972-3.85 8.925-4.13 19.775-4.463Z" fill="#EEE"/></g><defs><clipPath id="a"><path fill="#fff" d="M0 0h49v49H0z"/></clipPath></defs></svg>