<svg width="49" height="49" viewBox="0 0 49 49" fill="none" xmlns="http://www.w3.org/2000/svg">
<path d="M32.7358 14.708C31.6982 14.708 30.9199 15.4863 30.9199 16.5239C30.9199 17.5616 31.6982 18.3398 32.7358 18.3398C33.7735 18.3398 34.5517 17.5616 34.5517 16.5239C34.5517 15.4863 33.7735 14.708 32.7358 14.708Z" fill="white"/>
<path d="M24.5648 17.041C20.2845 17.041 16.9121 20.5431 16.9121 24.6937C16.9121 28.8444 20.4142 32.3465 24.5648 32.3465C28.7155 32.3465 32.2175 28.8444 32.2175 24.6937C32.2175 20.5431 28.8452 17.041 24.5648 17.041ZM24.5648 29.6226C21.841 29.6226 19.636 27.4176 19.636 24.6937C19.636 21.9699 21.841 19.7649 24.5648 19.7649C27.2887 19.7649 29.4937 21.9699 29.4937 24.6937C29.4937 27.4176 27.2887 29.6226 24.5648 29.6226Z" fill="white"/>
<path d="M30.7908 9H18.4686C13.1506 9 9 13.1506 9 18.3389V30.6611C9 35.8494 13.1506 40 18.3389 40H30.6611C35.8494 40 40 35.8494 40 30.6611V18.3389C40.1297 13.1506 35.9791 9 30.7908 9ZM37.1464 30.7908C37.1464 34.2929 34.2929 37.2761 30.6611 37.2761H18.3389C14.8368 37.2761 11.8536 34.4226 11.8536 30.7908V18.4686C11.8536 14.9665 14.7071 11.9833 18.3389 11.9833H30.6611C34.1632 11.9833 37.1464 14.8368 37.1464 18.4686V30.7908Z" fill="white"/>
</svg>
