<svg width="49" height="49" viewBox="0 0 49 49" fill="none" xmlns="http://www.w3.org/2000/svg">
<path d="M19.4465 36.6619C18.4155 36.6619 18.5085 36.2869 18.2285 35.3499L15.2285 25.5059L36.5 13.5" fill="#C8C8C8"/>
<path d="M19.4473 36.6599C20.1043 36.6599 20.4793 36.2849 20.9473 35.9099L25.1673 31.8799L19.9173 28.6909" fill="#A9A9A9"/>
<path d="M19.6664 28.8273L30.3389 36.6546C31.4461 37.3655 32.3948 36.9708 32.711 35.5474L37.0589 15.1511C37.4552 13.4114 36.3472 12.6213 35.1615 13.1745L22.4728 18.076L9.78405 22.9775C8.12365 23.61 8.12365 24.6379 9.46783 25.0326L16.0293 27.0885L31.0506 17.5224C31.7623 17.126 32.3948 17.2854 31.92 17.8386" fill="#F6FBFE"/>
</svg>
