<svg width="49" height="49" fill="none" xmlns="http://www.w3.org/2000/svg"><path d="M33.19 23.902c2.05 0 3.593-.854 4.73-2.34l-1.52-1.16a4.012 4.012 0 0 1-3.21 1.587c-2.224 0-3.836-1.812-3.836-4.036 0-2.224 1.585-4.138 3.9-4.138 1.028 0 1.755.243 2.39.636v1.955h1.913v-2.85l-.367-.29c-1.052-.827-2.658-1.266-4-1.266a5.959 5.959 0 0 0-5.953 5.952c0 3.28 2.67 5.95 5.953 5.95Zm3.97 11.74-.068-2.74v-6.687h-3.99v1.915h1.975v4.537c0 1.954-1.493 3.337-3 3.337-1.505 0-2.29-1.044-2.29-2.997v-6.792h-3.729v1.914h1.713v5.21c0 2.65 1.486 4.478 4.138 4.478 1.523 0 2.683-.846 3.376-2.149h.03l.274 1.822h3.066v-1.845h-1.493v-.004l-.002.002ZM26.796 12.282h-3.325l-2.893 8.4h-.045l-2.877-8.4h-3.544v1.915h1.993l3.43 9.573h1.823v-.002l3.577-9.57h1.86v-1.915l.001-.001ZM11 37.515h1.97v-1.97H11v1.97Zm7.61-9.08h-.021l-.124-2.22h-3.518v1.745h1.872v7.683h-1.871v1.846h8.693v-1.81H18.8v-4.636c.219-1.678 1.477-3.111 3.194-3.111h.03l-.034 1.715h1.913v-3.463h-1.512c-1.733-.005-3.018.932-3.782 2.252Z" fill="#fff"/></svg>