<svg xmlns="http://www.w3.org/2000/svg" width="254" height="100" fill="none"><path fill="#fff" fill-rule="evenodd" d="M30.137.055c-3.467.36-5.912 2.18-6.934 5.163-.424 1.237-.566 2.273-.62 4.515-.08 3.273.212 5.86.878 7.784.424 1.227 1.455 3.194 2.298 4.388.418.592 1.845 2.45 3.172 4.127 4.25 5.377 4.77 6.169 5.214 7.96.327 1.315.43 4.61.193 6.17-.21 1.383-.525 1.957-1.26 2.297-.881.408-2.102.23-2.714-.397-.75-.768-.858-1.678-.858-7.203v-4.117H22.197l.003 5.495c.001 3.022.042 5.797.09 6.167.21 1.618.754 3.106 1.546 4.228 1.122 1.59 3.255 2.714 5.76 3.036.92.119 3.742.115 4.737-.007 4.263-.519 6.952-3.255 7.751-7.885.268-1.548.36-3.801.25-6.063-.157-3.241-.537-4.936-1.565-6.99-.719-1.435-1.751-2.898-4.799-6.803-4.105-5.26-4.713-6.134-5.247-7.543-.37-.976-.508-1.79-.561-3.286-.056-1.578.073-2.97.328-3.543.32-.72 1.172-1.103 2.174-.981.861.105 1.338.48 1.599 1.253.13.387.156 1.01.184 4.508l.033 4.06h7.116v-4.733c0-5.034-.046-5.744-.455-7.065-.328-1.061-.78-1.818-1.526-2.56-.98-.976-2.107-1.51-3.886-1.847-.866-.163-4.458-.245-5.592-.128ZM0 24.775v24.358h7.399V27.692h5.053v21.44H19.76V.42H12.452v19.468H7.399V.419H0v24.357Zm44.755 0v24.358h17.143V41.776H52.153V27.602h7.4V20.245h-7.4V7.416h9.385V.418H44.754v24.358ZM74.892.52c0 .056-.832 6.767-1.848 14.915s-2.355 18.912-2.976 23.92c-.621 5.008-1.153 9.257-1.183 9.442l-.055.337h6.784l.004-.202c.003-.111.217-2.16.477-4.553l.472-4.351 2.756-.024 2.756-.023.207 1.952c.114 1.074.334 3.123.49 4.554l.282 2.602 3.631.023c1.998.013 3.632-.007 3.632-.046 0-.038-.91-6.911-2.023-15.274-1.112-8.363-2.564-19.293-3.225-24.289L83.87.42h-4.49c-3.254 0-4.488.027-4.488.1Zm16.512 24.257v24.357H98.893V27.305l1.466.055c1.781.068 2.265.19 2.714.684.176.194.371.507.434.695.088.263.127 2.458.171 9.404.061 9.748.058 9.694.534 10.621l.189.369h3.743c3.05 0 3.742-.022 3.742-.12 0-.065-.105-.375-.233-.69-.526-1.285-.511-.974-.573-11.84-.063-11.13-.016-10.337-.684-11.528-.45-.803-1.447-1.682-2.288-2.017l-.304-.122.44-.221c.638-.322 1.645-1.373 2.038-2.127.181-.346.423-.972.538-1.39l.209-.761V5.937l-.212-.84c-.474-1.867-1.447-3.16-2.901-3.852-1.665-.794-2.055-.826-9.945-.826h-6.567v24.357Zm20.933-20.858v3.498h6.226v41.717H125.872V7.416h6.226V.418H112.337v3.5Zm29.434 5.405c-.61 4.897-1.959 15.747-2.998 24.11a4225.807 4225.807 0 0 1-1.933 15.453l-.045.247h6.745l.056-.426c.03-.235.237-2.142.46-4.24.222-2.096.428-3.963.457-4.148l.053-.337h2.744c1.509 0 2.744.03 2.744.067 0 .038.224 2.086.496 4.553l.497 4.508c0 .013 1.645.023 3.656.023h3.656l-.047-.202c-.04-.176-1.516-11.218-5.413-40.497-.572-4.3-1.04-7.864-1.04-7.917 0-.07-1.31-.098-4.489-.098h-4.489l-1.11 8.904Zm17.847 15.453v24.357h6.677l.023-13.947.023-13.948 3.519 13.947 3.519 13.946 3 .001h3V.42h-6.677v13.068c0 7.187-.019 13.05-.042 13.026-.043-.043-2.511-10.143-4.963-20.308a984.224 984.224 0 0 0-1.367-5.63c-.043-.145-.283-.156-3.379-.156h-3.333v24.357Zm22.829 0v24.366l6.519-.033c5.78-.03 6.596-.052 7.196-.19 3.461-.793 5.259-2.922 5.883-6.963.093-.607.117-4.183.117-17.45 0-15.774-.009-16.737-.165-17.628-.351-2-.984-3.35-2.085-4.446-.856-.852-1.725-1.322-3.164-1.713l-.902-.245-6.699-.032-6.7-.033v24.367Zm-80.253-17.59c.597.18 1.057.629 1.27 1.236.153.438.166.838.166 5.185v4.71l-.215.538c-.266.665-.819 1.221-1.414 1.423-.324.11-.769.147-1.771.147h-1.337V6.94l1.421.053c.882.032 1.596.105 1.88.192Zm91.024.08c.575.26.861.635 1.11 1.451.157.512.165 1.297.165 15.88v15.34l-.217.539a3.072 3.072 0 0 1-.587.91c-.529.53-1.041.66-2.596.66h-1.247V6.94l1.439.05c1.283.044 1.493.074 1.933.274ZM79.986 21.007l.977 8.949.3 2.758h-1.968c-1.082 0-1.967-.02-1.967-.043 0-.024.181-1.73.403-3.79.52-4.824 1.49-13.962 1.499-14.121.021-.369.14.608.756 6.247Zm67.639-3.036c.897 8.117 1.617 14.668 1.617 14.704 0 .022-.894.04-1.986.04h-1.986l.049-.337c.048-.322 1.111-10.268 1.635-15.293.137-1.318.264-2.381.283-2.363.018.018.193 1.48.388 3.249Zm-98.5 32.326c-2.352.329-4.236 1.255-5.393 2.65-.918 1.106-1.477 2.381-1.828 4.17-.14.714-.166 1.272-.162 3.453.005 2.748.107 4.126.409 5.51.475 2.183 1.512 4.37 3.086 6.512.254.345 1.559 2.02 2.9 3.724 3.791 4.815 4.289 5.529 4.835 6.937.463 1.195.541 1.72.596 4.007.071 2.956-.113 4.177-.751 4.973-.34.422-.764.616-1.457.662-1.395.094-2.31-.664-2.548-2.11-.048-.286-.087-2.609-.087-5.162V80.98h-7.4l.002 5.36c0 5.51.038 6.314.364 7.64.232.948 1.022 2.585 1.546 3.205 1.11 1.31 2.566 2.125 4.557 2.547 1.145.243 4.187.345 5.476.183 3.38-.423 5.571-1.9 6.938-4.679 1.103-2.24 1.486-5.234 1.25-9.77-.221-4.27-1.05-6.386-4.06-10.362a462.297 462.297 0 0 0-2.674-3.454c-3.447-4.42-3.875-5.016-4.486-6.235-.661-1.32-.864-2.248-.94-4.306-.087-2.35.191-3.542.943-4.036.706-.465 2.073-.385 2.627.154.686.666.73.998.73 5.603v3.796h7.234l-.043-4.912c-.046-5.222-.077-5.638-.526-6.953-.64-1.873-1.901-3.235-3.59-3.877-1.287-.489-2.099-.6-4.655-.633-1.29-.017-2.592.004-2.894.046Zm32.366.014c-2.242.233-3.979 1.034-5.309 2.447-.867.922-1.388 1.81-1.834 3.126-.72 2.125-.668.703-.7 19.265-.02 11.607 0 16.81.07 17.417.401 3.506 2.294 6.212 4.963 7.093.482.16.858.2 2.094.23 1.75.041 2.086-.026 3.341-.67 1.425-.73 3.022-2.46 3.757-4.07l.26-.567.14.488c.125.43.829 3.051 1.066 3.965l.087.336h4.234V69.767H83.193v7.446h3.338v6.45c0 6.19-.007 6.473-.18 7.03-.435 1.4-1.856 2.145-3.3 1.729-.724-.209-1.203-.703-1.494-1.541l-.214-.615v-31.04l.203-.494c.385-.941 1.081-1.43 2.042-1.433 1.294-.005 2.03.59 2.3 1.864.065.301.102 1.656.102 3.7v3.226H93.3l-.001-3.477c-.002-5.273-.243-6.864-1.346-8.888-.628-1.151-1.953-2.291-3.252-2.797-1.575-.613-4.68-.878-7.21-.615Zm51.284-.006c-4.271.572-6.717 3.057-7.262 7.376-.12.955-.119 5.208.003 6.324.358 3.305 1.251 5.607 3.237 8.346.382.527 1.668 2.19 2.857 3.695 3.56 4.505 4.181 5.362 4.782 6.605.68 1.404.849 2.461.846 5.282-.004 2.794-.208 3.827-.882 4.469-.849.808-2.684.628-3.346-.33-.586-.845-.587-.86-.62-6.225l-.03-4.867h-7.39l.001 5.226c0 6.242.062 6.991.727 8.806.997 2.727 3.303 4.418 6.608 4.848 1.331.174 3.783.177 4.982.008 4.34-.614 6.866-3.315 7.679-8.212.189-1.135.274-5.773.133-7.21-.345-3.516-1.328-5.807-4.005-9.332a559.996 559.996 0 0 0-3.006-3.88c-3.254-4.169-3.953-5.177-4.451-6.417-.557-1.385-.592-1.624-.592-4.023-.001-2.507.09-3.003.646-3.54.706-.682 2.182-.665 2.918.032.611.58.631.746.631 5.32v4.02H144.46l-.002-4.463c-.001-2.455-.042-4.847-.092-5.316-.384-3.638-2.113-5.653-5.471-6.374-.742-.16-1.263-.195-3.188-.222-1.265-.017-2.585.007-2.932.054Zm21.475.035c-3.715.586-5.903 2.71-6.84 6.641-.192.807-.192.825-.222 17.45-.027 15.174-.016 16.736.121 17.718.261 1.857.899 3.615 1.713 4.718.449.607 1.478 1.543 2.085 1.894 1.508.874 3.26 1.238 5.953 1.238 2.303 0 3.826-.273 5.155-.925 2.312-1.133 3.721-3.341 4.271-6.692.156-.953.17-1.593.17-7.612V78.2h-7.211l-.026 6.302c-.026 6.175-.03 6.312-.216 6.763-.441 1.065-1.063 1.493-2.173 1.496-.834.003-1.377-.255-1.787-.847-.567-.818-.542-.031-.542-17.123 0-14.853.007-15.59.166-16.1.199-.641.666-1.15 1.189-1.294.198-.055.646-.1.997-.1.827 0 1.497.312 1.87.872.476.713.512 1.15.513 6.237l.002 4.643h7.218l-.001-5.36c-.002-5.654-.042-6.368-.445-7.917-.479-1.843-1.681-3.493-3.196-4.387-.756-.447-2.121-.877-3.286-1.036-1.241-.17-4.423-.174-5.478-.008Zm45.611-.07c-4.233.452-6.799 2.73-7.756 6.89-.418 1.817-.409 1.455-.409 17.854 0 14.653.009 15.578.166 16.552.52 3.226 1.593 5.32 3.424 6.69 1.773 1.324 3.799 1.807 7.206 1.718 3.114-.083 4.727-.572 6.359-1.931 1.574-1.31 2.543-3.294 3.033-6.208l.204-1.211v-15.61c0-14.485-.012-15.68-.159-16.586-.627-3.842-1.934-5.962-4.443-7.208-.939-.466-2.01-.758-3.381-.92-.714-.086-3.537-.105-4.244-.03Zm22.107.065c-2.45.376-4.037 1.189-5.364 2.747-.935 1.098-1.56 2.5-2.01 4.511l-.245 1.093-.031 15.655c-.021 11.036-.001 15.946.07 16.642.182 1.788.537 3.095 1.22 4.486.517 1.052 1.049 1.744 1.913 2.49 1.662 1.434 3.758 2.042 7.03 2.038 3.606-.004 5.741-.715 7.443-2.479 1.503-1.557 2.316-3.743 2.612-7.023.061-.683.083-6.227.064-16.244l-.03-15.206-.198-1.076c-.461-2.498-1.211-4.151-2.455-5.408-1.042-1.052-2.545-1.79-4.341-2.133-1.035-.197-4.615-.256-5.678-.093ZM0 75.015v24.357l5.707-.001c3.14-.001 6.195-.042 6.79-.09 3.986-.329 6.186-2.33 7.01-6.38l.208-1.02v-17c0-16.244-.007-17.041-.169-17.898-.701-3.722-2.537-5.6-6.046-6.19-.66-.111-1.92-.135-7.15-.135H0v24.357Zm22.558 0v24.357h17.234v-7.446h-9.835V77.84h7.399v-7.356h-7.4V57.655H39.432v-6.998H22.558v24.357Zm40.965 0v24.357H71.012V50.658H63.523v24.357Zm32.663 0v24.357h6.677l.023-13.912.022-13.912 3.512 13.912 3.511 13.912h6.016V50.658H109.17l.052 13.076c.035 8.835.022 13.017-.04 12.896-.085-.167-1.717-6.834-4.959-20.252-.748-3.096-1.36-5.65-1.36-5.674 0-.025-1.502-.046-3.338-.046h-3.339v24.357Zm72.907 0v24.357h7.399V77.931h4.962V99.372h7.399V50.658h-7.399v19.468h-4.962V50.658h-7.399v24.357Zm68.395 0v24.357H254v-7.536h-9.113V50.658h-7.399v24.357ZM10.602 57.39c.509.148 1.082.766 1.264 1.362.08.26.182.938.228 1.505.113 1.408.11 27.753-.003 29.031-.143 1.61-.477 2.281-1.343 2.704-.477.233-.59.25-1.928.278L7.4 92.3V57.181l1.421.052c.782.029 1.584.1 1.782.157Zm192.16.01c.442.133 1.027.626 1.242 1.05.477.942.459.29.459 16.532 0 10.36-.03 15.19-.097 15.55-.225 1.209-.76 1.9-1.678 2.165-1.167.337-2.419-.16-2.937-1.169-.494-.96-.466-.078-.499-15.706-.019-8.922.004-14.839.058-15.478.116-1.354.328-1.925.91-2.445.242-.216.575-.436.74-.488.411-.131 1.378-.136 1.802-.01Zm22.905.146c.46.228.924.79 1.128 1.363.308.87.326 1.857.298 16.779l-.027 14.758-.21.578c-.226.623-.548 1.126-.882 1.376-.115.087-.472.225-.793.31-1.396.363-2.664-.358-3.103-1.765-.144-.465-.155-1.581-.155-16.02v-15.52l.215-.538c.262-.657.908-1.323 1.419-1.464.584-.16 1.644-.089 2.11.143Z" clip-rule="evenodd"/></svg>