<svg width="59" height="54" viewBox="0 0 59 54" fill="none" xmlns="http://www.w3.org/2000/svg">
<mask id="path-1-inside-1_539_3343" fill="white">
<path d="M58.2355 12.793C57.8751 18.5998 53.2136 23.3478 47.4382 23.7713C43.7923 24.0395 40.4599 22.6278 38.1479 20.2138C38.0356 20.0773 37.9139 19.9503 37.7875 19.8232C35.6674 17.6116 32.686 15.2446 29.3818 15.2446C29.3584 15.2446 29.3303 15.2446 29.3069 15.2446C24.2944 15.2964 21.1352 20.8491 23.5736 25.2489C23.5923 25.2818 23.611 25.3148 23.6298 25.3524C25.31 28.2793 28.8295 29.7475 31.8623 30.4628C31.9278 30.4816 31.998 30.4957 32.0636 30.5098C35.0917 31.2251 37.8343 33.1497 39.5145 36.0766C42.7486 41.7046 40.825 48.8996 35.2321 52.1465C29.6345 55.3934 22.4784 53.4688 19.2491 47.8408C17.5969 44.9656 17.288 41.6811 18.1352 38.7212C18.196 38.5565 18.2475 38.3871 18.2943 38.213C19.1367 35.2578 19.6843 31.4792 18.0322 28.604C16.3941 25.7477 12.8933 24.3313 9.94005 23.5831C9.93537 23.5831 9.93069 23.5784 9.92601 23.5784C9.72008 23.5219 9.51415 23.4748 9.29886 23.4372C9.2895 23.4372 9.28482 23.4325 9.27546 23.4325C8.55002 23.2443 7.83862 22.9854 7.15999 22.656C5.90568 22.0584 4.75434 21.2302 3.77617 20.1997C3.66853 20.0962 3.57024 19.9879 3.47664 19.8797C3.34559 19.7338 3.21454 19.5832 3.09286 19.4233C2.98989 19.2962 2.88692 19.1644 2.78864 19.028C2.73248 18.9527 2.67631 18.8774 2.62951 18.8021C2.54995 18.6939 2.47506 18.5809 2.40018 18.468C2.39082 18.4539 2.38146 18.4351 2.36742 18.4162C2.26913 18.261 2.17085 18.101 2.07724 17.9363C2.07256 17.9316 2.07256 17.9268 2.06788 17.9221C2.05852 17.908 2.05384 17.8986 2.04448 17.8845C1.98832 17.781 1.93215 17.6774 1.87599 17.5739C1.74963 17.3386 1.6373 17.1034 1.52965 16.8634C1.47349 16.7457 1.42201 16.6234 1.37521 16.5057C1.32372 16.3834 1.27692 16.261 1.2348 16.1434C1.20204 16.0587 1.17396 15.9787 1.14587 15.8987C1.04291 15.5975 0.949303 15.287 0.869739 14.9811C0.822937 14.807 0.785495 14.6329 0.748053 14.4588C0.743373 14.4352 0.738692 14.4117 0.734012 14.3882C0.70125 14.2329 0.673169 14.0823 0.649768 13.927C0.649768 13.8941 0.640407 13.8659 0.635727 13.8329C0.602965 13.6353 0.579564 13.4423 0.560843 13.2447C0.542122 13.0612 0.528081 12.8824 0.518721 12.7036C0.514041 12.6659 0.514041 12.6283 0.514041 12.5906C0.50468 12.4118 0.5 12.233 0.5 12.0542V12.0259C0.5 11.8612 0.5 11.6918 0.514041 11.5271C0.518721 11.3248 0.537442 11.1177 0.556163 10.9154C0.565523 10.8025 0.579564 10.6895 0.593605 10.5813C0.593605 10.5578 0.598285 10.5342 0.602965 10.5107C0.649768 10.1578 0.710611 9.80957 0.785495 9.46135C0.794855 9.42841 0.799536 9.40017 0.808896 9.36723C0.921222 8.89196 1.05695 8.4261 1.22544 7.96965C1.31436 7.72966 1.40797 7.49908 1.51093 7.2638C1.60922 7.04263 1.71218 6.82147 1.82919 6.60501C1.83387 6.59559 1.83855 6.58148 1.84323 6.57207C1.89939 6.46384 1.96024 6.3556 2.02108 6.24737C2.08192 6.13914 2.14745 6.02621 2.21297 5.91798C2.27849 5.80504 2.3487 5.69211 2.42358 5.57917C2.4891 5.48035 2.55931 5.37683 2.62951 5.27801C2.69971 5.17448 2.7746 5.07096 2.85416 4.96743C2.96181 4.82156 3.07413 4.67568 3.19114 4.53451C3.2707 4.43569 3.35495 4.33687 3.43919 4.24276C3.49068 4.18629 3.54216 4.13453 3.58896 4.07806C3.67789 3.98395 3.76681 3.88983 3.85574 3.79572C3.94466 3.70631 4.03826 3.6169 4.12719 3.5275C4.12719 3.52279 4.13655 3.51809 4.13655 3.51809C4.23015 3.42868 4.32376 3.34398 4.42204 3.25457C4.61393 3.08046 4.81519 2.91105 5.0258 2.75106C5.12876 2.67107 5.23641 2.59107 5.34405 2.51107C5.66699 2.27579 6.00397 2.05462 6.35499 1.85228C6.47199 1.7864 6.58432 1.72052 6.70132 1.65935C6.93534 1.53229 7.16935 1.41936 7.40804 1.31113C7.75438 1.15113 8.11008 1.01467 8.46578 0.892322C8.47982 0.892322 8.49386 0.88291 8.5079 0.878205C8.61554 0.840559 8.72319 0.80762 8.83551 0.769974C9.36906 0.609981 9.90729 0.487634 10.4502 0.407638C10.6327 0.379404 10.8199 0.355875 11.0025 0.337053C11.1522 0.322936 11.2973 0.308819 11.4471 0.299407C11.522 0.294702 11.5922 0.289996 11.6624 0.289996C11.8402 0.280585 12.0134 0.275879 12.1912 0.275879H12.21C12.3785 0.275879 12.5423 0.280585 12.7061 0.28529C12.7763 0.289996 12.8465 0.294702 12.9167 0.299407C13.0524 0.299407 13.1881 0.31823 13.3239 0.332347C13.4315 0.341758 13.5345 0.35117 13.6374 0.369992C13.7966 0.384109 13.9557 0.407638 14.1101 0.431166C14.3442 0.473517 14.5782 0.520574 14.8122 0.572336C15.0368 0.624099 15.2568 0.685272 15.4768 0.746446C15.795 0.840559 16.1133 0.94879 16.4222 1.07114C16.5673 1.1229 16.7124 1.18407 16.8528 1.24995C16.8855 1.25936 16.923 1.27348 16.9557 1.2923C17.1055 1.35818 17.2506 1.42877 17.3957 1.49935C17.5829 1.58876 17.7701 1.68758 17.9526 1.79581C18.9729 2.37931 19.8996 3.10869 20.6953 3.96042C20.7608 4.02159 20.8216 4.08747 20.8871 4.15806C20.9059 4.17688 20.9246 4.1957 20.9433 4.21452C20.9433 4.21923 20.9527 4.22394 20.962 4.23335C23.0775 6.47795 26.0729 8.74609 29.3818 8.74609C32.6907 8.74609 35.7656 6.41678 37.8998 4.13453C37.9466 4.08277 37.9934 4.031 38.0402 3.98395C40.1697 1.7017 43.1979 0.275879 46.5583 0.275879C53.2698 0.275879 58.6567 5.95562 58.2355 12.793Z"/>
</mask>
<path d="M58.2355 12.793C57.8751 18.5998 53.2136 23.3478 47.4382 23.7713C43.7923 24.0395 40.4599 22.6278 38.1479 20.2138C38.0356 20.0773 37.9139 19.9503 37.7875 19.8232C35.6674 17.6116 32.686 15.2446 29.3818 15.2446C29.3584 15.2446 29.3303 15.2446 29.3069 15.2446C24.2944 15.2964 21.1352 20.8491 23.5736 25.2489C23.5923 25.2818 23.611 25.3148 23.6298 25.3524C25.31 28.2793 28.8295 29.7475 31.8623 30.4628C31.9278 30.4816 31.998 30.4957 32.0636 30.5098C35.0917 31.2251 37.8343 33.1497 39.5145 36.0766C42.7486 41.7046 40.825 48.8996 35.2321 52.1465C29.6345 55.3934 22.4784 53.4688 19.2491 47.8408C17.5969 44.9656 17.288 41.6811 18.1352 38.7212C18.196 38.5565 18.2475 38.3871 18.2943 38.213C19.1367 35.2578 19.6843 31.4792 18.0322 28.604C16.3941 25.7477 12.8933 24.3313 9.94005 23.5831C9.93537 23.5831 9.93069 23.5784 9.92601 23.5784C9.72008 23.5219 9.51415 23.4748 9.29886 23.4372C9.2895 23.4372 9.28482 23.4325 9.27546 23.4325C8.55002 23.2443 7.83862 22.9854 7.15999 22.656C5.90568 22.0584 4.75434 21.2302 3.77617 20.1997C3.66853 20.0962 3.57024 19.9879 3.47664 19.8797C3.34559 19.7338 3.21454 19.5832 3.09286 19.4233C2.98989 19.2962 2.88692 19.1644 2.78864 19.028C2.73248 18.9527 2.67631 18.8774 2.62951 18.8021C2.54995 18.6939 2.47506 18.5809 2.40018 18.468C2.39082 18.4539 2.38146 18.4351 2.36742 18.4162C2.26913 18.261 2.17085 18.101 2.07724 17.9363C2.07256 17.9316 2.07256 17.9268 2.06788 17.9221C2.05852 17.908 2.05384 17.8986 2.04448 17.8845C1.98832 17.781 1.93215 17.6774 1.87599 17.5739C1.74963 17.3386 1.6373 17.1034 1.52965 16.8634C1.47349 16.7457 1.42201 16.6234 1.37521 16.5057C1.32372 16.3834 1.27692 16.261 1.2348 16.1434C1.20204 16.0587 1.17396 15.9787 1.14587 15.8987C1.04291 15.5975 0.949303 15.287 0.869739 14.9811C0.822937 14.807 0.785495 14.6329 0.748053 14.4588C0.743373 14.4352 0.738692 14.4117 0.734012 14.3882C0.70125 14.2329 0.673169 14.0823 0.649768 13.927C0.649768 13.8941 0.640407 13.8659 0.635727 13.8329C0.602965 13.6353 0.579564 13.4423 0.560843 13.2447C0.542122 13.0612 0.528081 12.8824 0.518721 12.7036C0.514041 12.6659 0.514041 12.6283 0.514041 12.5906C0.50468 12.4118 0.5 12.233 0.5 12.0542V12.0259C0.5 11.8612 0.5 11.6918 0.514041 11.5271C0.518721 11.3248 0.537442 11.1177 0.556163 10.9154C0.565523 10.8025 0.579564 10.6895 0.593605 10.5813C0.593605 10.5578 0.598285 10.5342 0.602965 10.5107C0.649768 10.1578 0.710611 9.80957 0.785495 9.46135C0.794855 9.42841 0.799536 9.40017 0.808896 9.36723C0.921222 8.89196 1.05695 8.4261 1.22544 7.96965C1.31436 7.72966 1.40797 7.49908 1.51093 7.2638C1.60922 7.04263 1.71218 6.82147 1.82919 6.60501C1.83387 6.59559 1.83855 6.58148 1.84323 6.57207C1.89939 6.46384 1.96024 6.3556 2.02108 6.24737C2.08192 6.13914 2.14745 6.02621 2.21297 5.91798C2.27849 5.80504 2.3487 5.69211 2.42358 5.57917C2.4891 5.48035 2.55931 5.37683 2.62951 5.27801C2.69971 5.17448 2.7746 5.07096 2.85416 4.96743C2.96181 4.82156 3.07413 4.67568 3.19114 4.53451C3.2707 4.43569 3.35495 4.33687 3.43919 4.24276C3.49068 4.18629 3.54216 4.13453 3.58896 4.07806C3.67789 3.98395 3.76681 3.88983 3.85574 3.79572C3.94466 3.70631 4.03826 3.6169 4.12719 3.5275C4.12719 3.52279 4.13655 3.51809 4.13655 3.51809C4.23015 3.42868 4.32376 3.34398 4.42204 3.25457C4.61393 3.08046 4.81519 2.91105 5.0258 2.75106C5.12876 2.67107 5.23641 2.59107 5.34405 2.51107C5.66699 2.27579 6.00397 2.05462 6.35499 1.85228C6.47199 1.7864 6.58432 1.72052 6.70132 1.65935C6.93534 1.53229 7.16935 1.41936 7.40804 1.31113C7.75438 1.15113 8.11008 1.01467 8.46578 0.892322C8.47982 0.892322 8.49386 0.88291 8.5079 0.878205C8.61554 0.840559 8.72319 0.80762 8.83551 0.769974C9.36906 0.609981 9.90729 0.487634 10.4502 0.407638C10.6327 0.379404 10.8199 0.355875 11.0025 0.337053C11.1522 0.322936 11.2973 0.308819 11.4471 0.299407C11.522 0.294702 11.5922 0.289996 11.6624 0.289996C11.8402 0.280585 12.0134 0.275879 12.1912 0.275879H12.21C12.3785 0.275879 12.5423 0.280585 12.7061 0.28529C12.7763 0.289996 12.8465 0.294702 12.9167 0.299407C13.0524 0.299407 13.1881 0.31823 13.3239 0.332347C13.4315 0.341758 13.5345 0.35117 13.6374 0.369992C13.7966 0.384109 13.9557 0.407638 14.1101 0.431166C14.3442 0.473517 14.5782 0.520574 14.8122 0.572336C15.0368 0.624099 15.2568 0.685272 15.4768 0.746446C15.795 0.840559 16.1133 0.94879 16.4222 1.07114C16.5673 1.1229 16.7124 1.18407 16.8528 1.24995C16.8855 1.25936 16.923 1.27348 16.9557 1.2923C17.1055 1.35818 17.2506 1.42877 17.3957 1.49935C17.5829 1.58876 17.7701 1.68758 17.9526 1.79581C18.9729 2.37931 19.8996 3.10869 20.6953 3.96042C20.7608 4.02159 20.8216 4.08747 20.8871 4.15806C20.9059 4.17688 20.9246 4.1957 20.9433 4.21452C20.9433 4.21923 20.9527 4.22394 20.962 4.23335C23.0775 6.47795 26.0729 8.74609 29.3818 8.74609C32.6907 8.74609 35.7656 6.41678 37.8998 4.13453C37.9466 4.08277 37.9934 4.031 38.0402 3.98395C40.1697 1.7017 43.1979 0.275879 46.5583 0.275879C53.2698 0.275879 58.6567 5.95562 58.2355 12.793Z" fill="black" stroke="black" stroke-width="1.72414" mask="url(#path-1-inside-1_539_3343)"/>
</svg>
