<svg width="163" height="128" viewBox="0 0 163 128" fill="none" xmlns="http://www.w3.org/2000/svg">
<path d="M38.2639 127.194C32.9398 127.194 27.9861 125.667 23.4028 122.611C18.8195 119.556 14.7917 115.227 11.3195 109.625C7.84723 104.023 5.11575 97.3565 3.12501 89.625C1.18056 81.8472 0.208341 73.2593 0.208341 63.8611C0.208341 54.4167 1.18056 45.8287 3.12501 38.0972C5.11575 30.3657 7.84723 23.6991 11.3195 18.0972C14.7917 12.4954 18.8195 8.18982 23.4028 5.18056C27.9861 2.12501 32.9398 0.597229 38.2639 0.597229C43.5417 0.597229 48.4722 2.12501 53.0556 5.18056C57.6852 8.18982 61.7361 12.4954 65.2083 18.0972C68.6806 23.6991 71.3889 30.3657 73.3333 38.0972C75.2778 45.8287 76.25 54.4167 76.25 63.8611C76.25 73.2593 75.2778 81.8472 73.3333 89.625C71.3889 97.3565 68.6806 104.023 65.2083 109.625C61.7361 115.227 57.6852 119.556 53.0556 122.611C48.4722 125.667 43.5417 127.194 38.2639 127.194ZM38.2639 117.403C42.1065 117.356 45.7176 116.037 49.0972 113.444C52.5232 110.852 55.5324 107.194 58.125 102.472C60.7176 97.7037 62.7546 92.0556 64.2361 85.5278C65.7176 79 66.4583 71.7778 66.4583 63.8611C66.4583 55.8982 65.7176 48.6528 64.2361 42.125C62.7546 35.5509 60.7176 29.9028 58.125 25.1806C55.5324 20.4583 52.5232 16.8241 49.0972 14.2778C45.7176 11.6852 42.1065 10.3889 38.2639 10.3889C34.4676 10.4352 30.8796 11.7546 27.5 14.3472C24.1204 16.9398 21.1111 20.5972 18.4722 25.3194C15.8796 30.0417 13.8426 35.6667 12.3611 42.1944C10.9259 48.7222 10.2083 55.9444 10.2083 63.8611C10.2083 71.8241 10.9491 79.0926 12.4306 85.6667C13.912 92.1944 15.9491 97.8426 18.5417 102.611C21.1343 107.333 24.1204 110.991 27.5 113.583C30.8796 116.13 34.4676 117.403 38.2639 117.403ZM23.2639 88.375C17.4306 88.375 12.7315 86.5231 9.16667 82.8194C5.64816 79.1157 3.8889 74.2083 3.8889 68.0972C3.8889 62.0787 5.64816 57.2176 9.16667 53.5139C12.7315 49.8102 17.4306 47.9583 23.2639 47.9583C29.0509 47.9583 33.7037 49.8102 37.2222 53.5139C40.787 57.2176 42.5694 62.0787 42.5694 68.0972C42.5694 74.2083 40.787 79.1157 37.2222 82.8194C33.7037 86.5231 29.0509 88.375 23.2639 88.375ZM17.7778 65.7361C18.9815 65.9213 20.0926 65.5509 21.1111 64.625C22.1296 63.6991 22.7778 62.4722 23.0556 60.9444C23.3333 59.463 23.1482 58.0972 22.5 56.8472C21.8519 55.5972 20.9028 54.8565 19.6528 54.625C18.4954 54.3935 17.3843 54.7639 16.3195 55.7361C15.2546 56.662 14.5833 57.8657 14.3056 59.3472C14.0278 60.875 14.213 62.287 14.8611 63.5833C15.5556 64.8333 16.5278 65.5509 17.7778 65.7361ZM124.514 127.194C119.236 127.194 114.282 125.667 109.653 122.611C105.069 119.556 101.042 115.227 97.5694 109.625C94.0972 104.023 91.3889 97.3565 89.4444 89.625C87.5 81.8472 86.5278 73.2593 86.5278 63.8611C86.5278 54.4167 87.5 45.8287 89.4444 38.0972C91.3889 30.3657 94.0972 23.6991 97.5694 18.0972C101.042 12.4954 105.069 8.18982 109.653 5.18056C114.282 2.12501 119.236 0.597229 124.514 0.597229C129.838 0.597229 134.792 2.12501 139.375 5.18056C143.958 8.18982 147.986 12.4954 151.458 18.0972C154.931 23.6991 157.639 30.3657 159.583 38.0972C161.574 45.8287 162.569 54.4167 162.569 63.8611C162.569 73.2593 161.574 81.8472 159.583 89.625C157.639 97.3565 154.931 104.023 151.458 109.625C147.986 115.227 143.958 119.556 139.375 122.611C134.792 125.667 129.838 127.194 124.514 127.194ZM124.514 117.333C128.31 117.287 131.898 115.991 135.278 113.444C138.704 110.852 141.713 107.194 144.306 102.472C146.898 97.7037 148.935 92.0556 150.417 85.5278C151.898 79 152.639 71.7778 152.639 63.8611C152.639 55.9444 151.898 48.7222 150.417 42.1944C148.935 35.6667 146.898 30.0417 144.306 25.3194C141.713 20.5509 138.704 16.8935 135.278 14.3472C131.898 11.7546 128.31 10.4583 124.514 10.4583C120.671 10.5046 117.06 11.8241 113.681 14.4167C110.301 16.963 107.292 20.5972 104.653 25.3194C102.06 30.0417 100.023 35.6667 98.5417 42.1944C97.0602 48.7222 96.3194 55.9444 96.3194 63.8611C96.3194 71.7778 97.0602 79.0232 98.5417 85.5972C100.023 92.125 102.06 97.7731 104.653 102.542C107.292 107.264 110.301 110.921 113.681 113.514C117.106 116.06 120.718 117.333 124.514 117.333ZM109.444 88.375C103.611 88.375 98.912 86.5231 95.3472 82.8194C91.8287 79.1157 90.0694 74.2083 90.0694 68.0972C90.0694 62.0787 91.8287 57.2176 95.3472 53.5139C98.912 49.8102 103.611 47.9583 109.444 47.9583C115.231 47.9583 119.907 49.8102 123.472 53.5139C127.083 57.2176 128.889 62.0787 128.889 68.0972C128.889 74.2083 127.083 79.1157 123.472 82.8194C119.907 86.5231 115.231 88.375 109.444 88.375ZM103.958 65.7361C105.162 65.9213 106.273 65.5509 107.292 64.625C108.31 63.6991 108.958 62.4722 109.236 60.9444C109.56 59.463 109.398 58.0972 108.75 56.8472C108.102 55.5509 107.153 54.8102 105.903 54.625C104.699 54.3935 103.588 54.7639 102.569 55.7361C101.551 56.662 100.88 57.8657 100.556 59.3472C100.278 60.875 100.463 62.2639 101.111 63.5139C101.806 64.7639 102.755 65.5046 103.958 65.7361Z" fill="black"/>
</svg>
