<svg width="143" height="142" viewBox="0 0 143 142" fill="none" xmlns="http://www.w3.org/2000/svg">
<path d="M51.5972 64.5417C49.5602 64.5417 47.8009 63.7315 46.3194 62.1111C44.8843 60.4907 44.1667 58.4074 44.1667 55.8611C44.1667 53.3148 44.8843 51.2315 46.3194 49.6111C47.8009 47.9907 49.5602 47.1806 51.5972 47.1806C53.6343 47.1806 55.3935 47.9907 56.875 49.6111C58.3565 51.2315 59.0972 53.3148 59.0972 55.8611C59.0972 58.4074 58.3565 60.4907 56.875 62.1111C55.3935 63.7315 53.6343 64.5417 51.5972 64.5417ZM92.1528 64.5417C90.1157 64.5417 88.3565 63.7315 86.875 62.1111C85.4398 60.4907 84.7222 58.4074 84.7222 55.8611C84.7222 53.3148 85.4398 51.2315 86.875 49.6111C88.3565 47.9907 90.1157 47.1806 92.1528 47.1806C94.1898 47.1806 95.9491 47.9907 97.4306 49.6111C98.912 51.2315 99.6528 53.3148 99.6528 55.8611C99.6528 58.4074 98.912 60.4907 97.4306 62.1111C95.9491 63.7315 94.1898 64.5417 92.1528 64.5417ZM47.4306 91.4167C47.4306 90.5833 47.7546 90.0046 48.4028 89.6806C49.0509 89.3565 49.7685 89.3565 50.5556 89.6806C53.0556 91.0694 55.9259 92.412 59.1667 93.7083C62.4537 94.9583 66.6204 95.5833 71.6667 95.5833C76.713 95.5833 80.8565 94.9583 84.0972 93.7083C87.3843 92.412 90.3009 91.0694 92.8472 89.6806C93.588 89.3565 94.2824 89.3565 94.9306 89.6806C95.5787 90.0046 95.9028 90.5833 95.9028 91.4167C95.9028 92.9444 94.8843 94.8426 92.8472 97.1111C90.8565 99.3333 88.0324 101.324 84.375 103.083C80.7176 104.796 76.4815 105.653 71.6667 105.653C66.8519 105.653 62.6157 104.796 58.9583 103.083C55.3009 101.324 52.4537 99.3333 50.4167 97.1111C48.4259 94.8426 47.4306 92.9444 47.4306 91.4167ZM71.7361 141.694C62.0602 141.694 52.9398 139.843 44.375 136.139C35.8565 132.435 28.3333 127.319 21.8056 120.792C15.2778 114.264 10.162 106.741 6.45834 98.2222C2.75464 89.6574 0.902784 80.537 0.902784 70.8611C0.902784 61.1852 2.75464 52.088 6.45834 43.5694C10.162 35.0046 15.2546 27.4583 21.7361 20.9306C28.2639 14.4028 35.787 9.28704 44.3056 5.58334C52.8704 1.87964 61.9907 0.027785 71.6667 0.027785C81.3426 0.027785 90.463 1.87964 99.0278 5.58334C107.593 9.28704 115.139 14.4028 121.667 20.9306C128.194 27.4583 133.31 35.0046 137.014 43.5694C140.718 52.088 142.569 61.1852 142.569 70.8611C142.569 80.537 140.718 89.6574 137.014 98.2222C133.31 106.741 128.194 114.264 121.667 120.792C115.139 127.319 107.593 132.435 99.0278 136.139C90.5093 139.843 81.412 141.694 71.7361 141.694ZM71.7361 129.889C79.9306 129.889 87.5926 128.361 94.7222 125.306C101.898 122.25 108.171 118.037 113.542 112.667C118.958 107.25 123.171 100.977 126.181 93.8472C129.236 86.7176 130.764 79.0556 130.764 70.8611C130.764 62.6667 129.236 55.0046 126.181 47.875C123.125 40.7454 118.889 34.4722 113.472 29.0556C108.056 23.6389 101.782 19.4259 94.6528 16.4167C87.5231 13.3611 79.8611 11.8333 71.6667 11.8333C63.4722 11.8333 55.8102 13.3611 48.6806 16.4167C41.5509 19.4259 35.3009 23.6389 29.9306 29.0556C24.5602 34.4722 20.3472 40.7454 17.2917 47.875C14.2824 55.0046 12.7778 62.6667 12.7778 70.8611C12.7778 79.0556 14.2824 86.7176 17.2917 93.8472C20.3472 100.977 24.5602 107.25 29.9306 112.667C35.3472 118.037 41.6204 122.25 48.75 125.306C55.8796 128.361 63.5417 129.889 71.7361 129.889Z" fill="black"/>
</svg>
