<svg width="155" height="132" viewBox="0 0 155 132" fill="none" xmlns="http://www.w3.org/2000/svg">
<path d="M5.0625 8.91602C3.89583 8.91602 2.89583 8.49935 2.0625 7.66602C1.22917 6.83268 0.8125 5.83268 0.8125 4.66602C0.8125 3.49935 1.22917 2.52018 2.0625 1.72852C2.89583 0.895182 3.89583 0.478516 5.0625 0.478516H57.6875C53.1875 2.31185 49.7917 5.12435 47.5 8.91602H5.0625ZM5.0625 32.3535C3.89583 32.3535 2.89583 31.9577 2.0625 31.166C1.22917 30.3327 0.8125 29.3327 0.8125 28.166C0.8125 26.9993 1.22917 25.9993 2.0625 25.166C2.89583 24.3327 3.89583 23.916 5.0625 23.916H45C45.125 24.7493 45.3542 25.7493 45.6875 26.916C46.0208 28.041 46.6458 29.8535 47.5625 32.3535H5.0625ZM5.0625 55.8535C3.89583 55.8535 2.89583 55.4577 2.0625 54.666C1.22917 53.8327 0.8125 52.8327 0.8125 51.666C0.8125 50.4993 1.22917 49.4993 2.0625 48.666C2.89583 47.8327 3.89583 47.416 5.0625 47.416H38.625C39.7917 47.416 40.7708 47.8327 41.5625 48.666C42.3958 49.4993 42.8125 50.4993 42.8125 51.666C42.8125 52.8327 42.3958 53.8327 41.5625 54.666C40.7708 55.4577 39.7917 55.8535 38.625 55.8535H5.0625ZM123.625 125.416C113.292 129.208 103.5 129.624 94.25 126.666C85.0417 123.749 76.4792 117.499 68.5625 107.916L47.625 82.6035C46.9167 81.6868 46.25 80.7285 45.625 79.7285C45.0417 78.6868 44.6042 77.7077 44.3125 76.791C43.1458 73.5827 43.3125 70.7077 44.8125 68.166C46.3542 65.6243 48.5417 63.8327 51.375 62.791C53.4583 62.041 55.5417 61.9785 57.625 62.6035C59.75 63.1868 61.7083 64.4368 63.5 66.3535L70.875 74.3535C71.0417 74.5618 71.25 74.6243 71.5 74.541C71.7917 74.4577 71.875 74.2285 71.75 73.8535L53.9375 24.8535C52.5625 21.1452 52.5833 17.7702 54 14.7285C55.4167 11.6452 57.875 9.45768 61.375 8.16602C64.8333 6.91602 68.0833 7.02018 71.125 8.47852C74.1667 9.89518 76.375 12.4785 77.75 16.2285L84.875 35.7285C86.0833 34.8535 87.375 34.1452 88.75 33.6035C91.3333 32.6868 93.7917 32.5827 96.125 33.291C98.4583 33.9577 100.438 35.3327 102.062 37.416C103.562 36.2077 105.167 35.291 106.875 34.666C109.333 33.791 111.646 33.666 113.812 34.291C115.979 34.8743 117.771 36.1243 119.188 38.041C124.688 36.1243 129.646 36.5202 134.062 39.2285C138.479 41.8952 141.917 46.6035 144.375 53.3535L149.062 66.166C152.396 75.3327 153.521 83.8535 152.438 91.7285C151.396 99.5618 148.396 106.395 143.438 112.229C138.521 118.02 131.917 122.416 123.625 125.416ZM121 117.229C127.917 114.729 133.333 111.124 137.25 106.416C141.208 101.708 143.521 96.1035 144.188 89.6035C144.896 83.1035 143.812 75.916 140.938 68.041L137.062 57.3535C135.354 52.6868 133.312 49.3327 130.938 47.291C128.604 45.2077 126.125 44.6452 123.5 45.6035L125.938 52.3535C126.354 53.4368 126.312 54.4577 125.812 55.416C125.312 56.3327 124.583 56.9577 123.625 57.291C122.625 57.666 121.604 57.666 120.562 57.291C119.562 56.8743 118.875 56.1243 118.5 55.041L115.188 45.916C114.604 44.3743 113.729 43.3118 112.562 42.7285C111.438 42.1035 110.125 42.0618 108.625 42.6035C107.417 43.0618 106.354 43.7493 105.438 44.666L109.5 55.791C109.875 56.8743 109.812 57.8952 109.312 58.8535C108.812 59.7702 108.083 60.3952 107.125 60.7285C106.125 61.1035 105.125 61.1035 104.125 60.7285C103.125 60.3118 102.417 59.5827 102 58.541L97.0625 44.8535C96.4792 43.3118 95.6042 42.2493 94.4375 41.666C93.3125 41.041 92 40.9993 90.5 41.541C89.2917 41.9993 88.2292 42.6868 87.3125 43.6035L93 59.291C93.375 60.291 93.3125 61.2702 92.8125 62.2285C92.3542 63.1868 91.625 63.8535 90.625 64.2285C89.625 64.6035 88.625 64.5827 87.625 64.166C86.625 63.7493 85.9375 63.0202 85.5625 61.9785L69.75 18.541C69.2917 17.291 68.5417 16.416 67.5 15.916C66.4583 15.3743 65.3333 15.3118 64.125 15.7285C62.9167 16.1868 62.0625 16.9577 61.5625 18.041C61.1042 19.0827 61.1042 20.2285 61.5625 21.4785L83.6875 82.3535C84.1875 83.7285 84.1875 84.9993 83.6875 86.166C83.2292 87.291 82.3958 88.0827 81.1875 88.541C80.1458 88.916 79.0833 88.9993 78 88.791C76.9167 88.541 75.7708 87.791 74.5625 86.541L60.0625 71.6035C58.3958 69.8118 56.6875 69.2285 54.9375 69.8535C53.7292 70.3118 52.9167 71.041 52.5 72.041C52.0833 73.041 52.0417 74.041 52.375 75.041C52.7083 75.916 53.2083 76.7493 53.875 77.541L74.8125 102.729C82.0208 111.479 89.4583 116.833 97.125 118.791C104.833 120.749 112.792 120.229 121 117.229Z" fill="black"/>
</svg>
