<svg width="500" height="821" fill="none" xmlns="http://www.w3.org/2000/svg"><g clip-path="url(#a)"><path d="M234.616 2.243c6.923 5.77 14.487 14.231 16.923 18.91l2.5 4.68-4.744-.384c-28.846-2.565-65.064-1.924-89.359 1.538-8.269 1.154-23.333 4.167-23.974 4.808-.385.384-.769.192 11.667 5.64 6.282 2.757 11.282 5.129 11.217 5.257-.128.064-3.974.77-8.525 1.538-30.192 5-54.551 14.488-78.846 30.834-36.282 24.423-64.552 63.974-70.449 98.59-1.41 8.397-1.218 19.294.385 19.294.32 0 3.846-1.859 7.884-4.166 4.039-2.308 7.436-4.167 7.5-4.167.128 0 .257 3.974.257 8.846.128 12.693 1.666 22.052 12.18 74.167 11.986 59.551 14.743 80.32 13.204 100.449-2.243 29.166-10.256 52.564-25.64 74.551l-3.59 5.128 3.525-2.884c6.026-4.936 18.462-17.372 23.782-23.718 15.513-18.462 26.474-40.77 30.962-63.013 2.692-13.334 3.205-19.167 3.14-36.026-.063-25.833-3.525-50-12.756-88.461-2.628-10.898-3.333-19.359-2.307-28.718 3.525-32.308 24.743-53.911 71.859-73.077 4.743-1.923 9.23-3.654 9.871-3.911.641-.256 1.09-.512.962-.641-1.09-1.089-27.244-3.589-37.692-3.589l-6.154-.064 4.872-4.616c16.089-15.384 43.397-27.243 74.615-32.436 4.231-.705 10.32-1.474 13.461-1.73l5.77-.385-6.731 6.218c-31.026 28.846-53.718 58.782-71.731 94.551-6.218 12.436-13.269 28.077-12.756 28.526.128.128 5.448-5.257 11.731-12.051 32.564-34.744 39.423-41.539 52.051-51.218 10.769-8.334 24.038-16.218 35.897-21.282 6.539-2.757 16.859-6.347 17.244-5.962.192.192-1.282 2.756-3.205 5.705-9.359 14.359-16.731 31.218-23.462 53.718l-2.372 7.949-1.666-2.5c-.898-1.41-5.064-7.949-9.231-14.552l-7.692-11.923-8.847 12.885c-9.23 13.462-25.833 36.859-37.692 53.141-3.782 5.256-6.731 9.487-6.602 9.487.128 0 4.807-2.564 10.384-5.641 12.052-6.731 20.321-11.859 28.526-17.756 3.269-2.372 6.282-4.423 6.667-4.551 1.089-.449 5.32 7.179 7.051 12.692 1.41 4.551 2.628 10.833 3.974 20.641l.513 3.782 8.013-8.59c14.231-15.192 21.218-23.846 26.859-33.205 1.538-2.5 3.013-4.359 3.333-4.103.257.257 2.051 4.68 4.039 9.808a2595.125 2595.125 0 0 0 6.282 16.026c3.718 9.551 8.974 19.487 12.884 24.295 3.269 4.038 9.487 9.679 10.705 9.679.385 0 .641-2.628.641-6.025 0-11.347 2.116-20.77 5.513-24.616l1.475-1.731 1.666 1.923c3.462 4.039 14.359 18.782 17.116 23.077 10.256 16.026 17.307 34.039 20.384 51.988 1.346 7.628 2.821 27.435 2.436 32.628l-.192 3.205-4.359-8.718c-2.372-4.808-6.603-12.18-9.295-16.346-9.615-14.68-18.333-23.782-39.103-40.769-6.602-5.385-14.359-11.924-17.243-14.424-2.885-2.564-5.321-4.679-5.449-4.679-.577 0-6.987 8.397-9.872 12.885-4.166 6.346-9.166 17.307-12.692 27.371-2.82 8.205-8.782 30.898-9.679 36.859l-.449 2.821 5.705.769c3.077.449 6.667.898 7.949 1.154l2.307.32.449-6.923c.898-13.846 3.269-25.256 6.795-32.884 1.603-3.398 7.179-13.526 8.141-14.744.385-.513 4.487 3.782 11.795 12.18 26.667 30.641 31.218 44.936 18.205 57.884-4.551 4.616-8.59 7.628-25.256 18.975-7.949 5.384-16.09 11.025-18.206 12.564-2.115 1.538-4.038 2.82-4.294 2.82-.77 0-7.821-9.872-13.654-19.166-9.487-15.193-18.462-34.872-33.205-72.629-5.706-14.679-6.795-16.987-7.693-16.474-2.436 1.282-19.423 18.974-25.064 26.026-7.051 8.846-9.487 12.307-13.974 19.487-16.346 26.346-26.346 56.859-31.346 95.513-2.885 22.436-4.231 49.679-4.872 101.218-.32 27.051-.577 38.012-1.282 51.923l-.32 6.089 4.679-9.615c12.5-25.513 30.192-52.244 51.731-78.205 17.115-20.577 43.461-46.923 60.448-60.577 2.372-1.859 4.295-3.654 4.295-3.91 0-.257-1.474-2.308-3.269-4.552l-3.269-4.038 3.077 3.205c1.666 1.731 5.833 6.09 9.23 9.616 7.949 8.333 13.654 13.653 21.026 19.487 3.269 2.628 5.705 4.936 5.449 5.192-.257.256-3.269 1.538-6.603 2.885-20.128 8.141-53.333 25.641-70.513 37.051-6.666 4.487-12.179 8.718-12.179 9.487 0 .321 3.397-1.154 7.564-3.205 20.833-10.577 41.987-16.41 77.051-21.154 5.449-.769 15.193-2.051 21.667-2.949l11.731-1.602 7.5 5.064c32.564 21.859 50.641 44.423 47.564 59.295-3.334 16.154-27.564 17.115-47.757 1.987-10.705-8.013-19.936-19.551-26.025-32.692l-2.052-4.359-8.397.384c-9.295.385-15.064 1.411-24.103 4.359-18.141 5.962-34.23 16.667-49.423 33.013-19.615 21.026-33.141 51.346-36.41 81.795-.897 8.013-.897 22.5 0 30.513 3.205 29.743 15 58.59 35 85.513 2.308 3.141 4.295 5.641 4.423 5.641.128 0 6.218-12.116 13.526-26.923 7.243-14.808 13.397-26.923 13.654-26.923.192 0 3.077 6.282 6.41 13.974 15.641 36.346 27.308 59.167 40.769 79.295 11.346 17.115 20.513 26.731 29.68 31.282 5.32 2.628 11.602 2.884 15.769.641 9.551-5.064 16.602-21.41 19.615-45.385 1.09-8.525 1.09-34.166 0-41.987-2.179-16.09-5.064-26.667-9.23-34.167-4.808-8.525-10.77-11.282-17.693-8.141-3.654 1.667-9.807 8.013-14.102 14.616-1.859 2.884-3.654 5.256-3.975 5.256-.32 0-1.474-.833-2.692-1.859-2.436-2.179-5.064-7.179-6.603-12.692-1.218-4.423-.897-4.231-9.359-5.064-2.884-.257-4.359-.193-4.359.256 0 1.474 4.744 14.167 7.052 18.718 3.077 6.09 8.461 12.949 12.948 16.41 3.59 2.821 10.129 6.667 11.218 6.667.321 0 1.411-3.205 2.308-7.051 2.757-11.475 6.026-18.654 8.846-19.552 6.731-2.179 12.693 18.911 13.846 48.718.641 17.244-1.218 32.18-5.064 40.706-5.192 11.602-12.371 11.987-22.948 1.282-12.629-12.821-26.923-38.27-45.641-81.09-5.129-11.731-15.898-38.077-15.898-38.846 0-.77 5.833-8.911 10.513-14.68 11.731-14.423 27.179-27.5 42.885-36.154 2.692-1.538 4.166-2.692 3.846-3.141-.193-.448-4.103-5.961-8.654-12.371-14.808-20.834-21.795-28.206-29.359-31.09-3.718-1.41-14.103-2.436-24.359-2.436l-5.449-.064-1.538 3.397c-9.487 20.321-12.885 29.295-15.128 39.551-.577 2.693-1.218 9.359-1.411 15.129-.448 12.5.577 19.295 4.423 30.833l2.629 7.756-6.667 10.641c-3.654 5.834-6.859 10.642-7.115 10.642-.898 0-5.513-6.731-7.757-11.218-9.936-19.936-10-48.975-.128-77.116 11.41-32.692 33.141-56.025 57.949-62.243 3.012-.77 6.794-1.347 8.525-1.347 2.949 0 3.334.193 8.077 4.616 17.18 15.961 34.936 26.474 52.628 31.09 7.308 1.923 20.385 2.371 26.347.897 10.32-2.5 20.384-10.321 24.359-18.718 5.128-11.09 5.448-23.397.833-37.115-5.192-15.513-18.654-33.27-35.641-47.052l-5.641-4.551 2.115-.513c1.154-.32 5.641-1.666 9.936-3.013 28.782-9.23 44.295-24.423 69.936-68.269 4.808-8.205 4.487-7.756 5.256-6.987 1.411 1.41 3.334 8.59 6.411 23.782 3.846 18.846 5 23.333 5.769 21.923.32-.577 1.474-4.551 2.564-8.846 10.128-39.872 4.359-80.064-16.859-117.821-15.192-27.051-33.526-48.333-77.756-90.384-13.782-13.141-19.295-19.295-21.539-24.295-1.282-2.628-1.474-4.231-1.474-10.192 0-6.154.256-7.693 1.859-12.052 2.5-6.923 7.243-13.91 13.461-20 4.872-4.743 10.641-8.846 10.641-7.564 0 .321-1.987 3.205-4.423 6.411-4.359 5.705-6.474 9.102-6.474 10.384 0 .321 3.526-1.025 7.756-2.949 16.923-7.628 32.436-11.602 42.564-10.833 13.782 1.026 21.988 6.09 42.885 26.667l12.885 12.628-8.334.449c-10 .513-14.487 1.666-18.654 4.807-3.012 2.308-8.525 9.231-8.589 10.77 0 .448.513.833 1.154.833.576.064 4.294 1.282 8.205 2.82 16.795 6.475 26.538 15.577 34.295 32.116l2.692 5.705-2.5 1.923c-5.705 4.487-11.859 11.026-13.462 14.295-1.987 3.974-2.179 8.269-.705 11.923 2.18 5.192 13.334 14.423 22.885 18.974l2.884 1.411 9.616-3.782 9.615-3.782.192-5.449.193-5.385-2.757-.705c-4.679-1.282-8.589-4.359-10.512-8.269-1.539-3.141-1.667-4.039-1.347-7.821.193-2.371 1.539-7.948 2.949-12.371l2.628-8.141 2.757-.385c7.82-1.154 15.384-1.603 18.013-1.09 5.064.962 9.166 4.487 12.564 10.898.577 1.153.769 5.128.705 14.871l-.128 13.334 3.397-.962c15.256-4.487 24.615-12.628 29.231-25.449 1.09-2.884 3.141-10.897 4.615-17.692 1.475-6.859 2.949-13.141 3.269-13.974.706-1.923 1.411-2.372-11.282 6.859-5.641 4.102-10.641 7.692-11.153 7.948-.706.449-.77-.128-.385-3.205.513-4.487-.577-17.564-1.987-24.487-3.077-15.064-9.487-29.295-21.09-47.243-5-7.693-32.756-46.026-33.526-46.347-.384-.128-5.641 15.962-10.256 31.539l-.962 3.205-2.371-6.731c-7.693-21.795-20.513-37.436-41.603-50.769-2.628-1.667-4.872-2.885-5-2.82-.064.128.256 4.679.769 10.064.513 5.384.834 9.936.705 10.064-.128.128-3.974-1.603-8.461-3.846-23.59-11.795-43.269-18.782-51.667-18.27l-3.397.193 5.448 1.794c8.783 2.885 12.757 5.834 20.193 14.808 4.166 5.064 4.679 6.218 2.436 5-.705-.384-3.654-1.154-6.603-1.795-6.859-1.346-16.795-.961-24.359.962-9.551 2.5-22.179 9.231-33.59 17.884-3.333 2.565-3.653 2.693-3.269 1.347.833-2.757 5.128-10.385 12.821-22.757 11.089-17.756 14.423-25.32 15.512-35l.385-3.654 4.551-.961c12.821-2.757 37.949-4.295 52.18-3.141l5.32.384-4.743 4.552c-4.551 4.423-7.5 8.205-8.398 11.025-.384 1.282-.128 1.347 7.757 1.731 20 .962 37.372 5.128 53.013 12.628 16.859 8.013 31.346 18.911 54.743 40.898l9.103 8.59-1.987-4.68c-3.718-8.91-11.988-25.256-17.18-33.782-14.872-24.68-33.333-44.808-57.244-62.5-11.73-8.782-33.205-21.923-33.205-20.449 0 .385 1.411 3.91 3.141 7.949 1.731 3.974 3.013 7.308 2.949 7.436-.064.064-4.872-.577-10.641-1.474-21.795-3.334-40.128-5.193-46.923-4.68l-3.782.256-10.705-5.961C262.244 8.718 248.911 3.14 233.975.32l-2.244-.448 2.885 2.371Zm210.128 172.372c6.987 10.128 9.295 16.795 9.295 26.667 0 6.731-1.346 16.154-2.244 15.897-1.41-.513-9.102-10.897-11.41-15.513-4.167-8.397-4.551-13.589-2.115-27.82 1.218-6.923 1.218-6.923 6.474.769ZM155.77 374.679c10.833 15.257 17.371 24.103 23.91 32.372 3.654 4.68 3.654 4.68.577 1.282l-3.269-3.526-4.936 2.5c-13.27 6.795-34.808 22.949-49.359 37.052l-8.398 8.205-.449-3.398c-.192-1.794-.384-7.82-.384-13.333 0-23.846 6.923-44.615 23.077-69.038l6.474-9.808 1.154 1.474c.641.834 5.833 8.077 11.603 16.218Zm178.653-1.474c-.256 6.346-.769 10.128-2.051 14.615-2.051 7.436-7.436 18.59-11.987 24.68-7.051 9.551-18.013 18.718-28.397 23.91-5.385 2.692-10.834 4.359-20.706 6.474l-8.525 1.795-7.821-6.731c-4.295-3.717-9.231-8.012-11.025-9.615-4.295-3.846-20.898-20.192-20.706-20.385 1.795-1.602 37.436-19.615 46.988-23.653 15.961-6.795 33.333-12.629 49.038-16.347 4.744-1.153 9.551-2.307 10.577-2.564 1.09-.32 2.628-.577 3.462-.577l1.538-.064-.385 8.462Zm-120.641 24.231c.641.705 1.026 1.282.834 1.282-.193 0-.834-.577-1.475-1.282-.641-.705-1.025-1.282-.833-1.282.192 0 .833.577 1.474 1.282Zm-28.846 16.025c.641.705 1.026 1.282.834 1.282-.193 0-.834-.577-1.475-1.282-.641-.705-1.025-1.282-.833-1.282.192 0 .833.577 1.474 1.282Zm2.885 3.526c.833.897 1.346 1.602 1.154 1.602-.129 0-.962-.705-1.795-1.602-.834-.898-1.346-1.603-1.154-1.603.128 0 .962.705 1.795 1.603Zm20.961 183.59c4.488 2.115 9.68 5.833 13.013 9.295l2.18 2.307-1.475 1.09c-7.371 5.128-20.705 19.551-31.795 34.423l-3.782 5.064-.769-1.859c-2.5-6.09-3.59-19.743-2.179-27.115.961-5.193 4.102-12.244 8.397-19.231 2.692-4.295 4.487-6.474 5.321-6.603 2.371-.384 6.987.706 11.089 2.629Z" fill="#fff"/></g><defs><clipPath id="a"><path fill="#fff" d="M0 0h500v820.513H0z"/></clipPath></defs></svg>