<svg width="1707" height="1510" fill="none" xmlns="http://www.w3.org/2000/svg"><g clip-path="url(#a)"><path d="M.4 33.466c.8 36.667 4 55.467 14.934 88.534 16.667 50.4 47.733 106.933 82.933 150.666 14.134 17.734 39.867 44.534 54.4 56.667 38.4 32.133 108.267 79.2 121.467 82 5.6 1.067 18.667 11.867 24.133 19.867 8.934 13.066 4.667 18.8-14.266 18.8-13.467-.134-24.667-3.467-50.667-15.2-54-24.534-112.8-68.534-156.267-117.067-25.2-28-28.8-31.733-29.866-30.8-5.067 5.2 76.266 102.933 112.8 135.467 36.8 32.933 112.4 81.333 147.066 94.266 7.867 2.934 20.134 15.6 31.467 32.4 11.733 17.6 22.267 30 37.6 44.934 23.467 22.666 47.6 40.666 70 52.266 24.133 12.4 80 26.934 120 31.067 24.533 2.533 26.8 1.333 52.533-28 17.734-20.133 28.534-30 44.667-40.933 18.667-12.534 42-21.734 65.733-25.867 17.2-2.933 21.333-3.067 26.267-1.2 4.8 1.867 2.933 4.933-6.934 11.467-21.866 14.4-55.466 56.133-71.599 89.066-8.534 17.334-10.267 26.8-11.067 61.467-.667 30.533 1.067 51.467 5.867 71.2 4.666 19.467 15.733 35.067 40.133 56.933 27.333 24.4 45.6 32.8 78.266 35.867 5.2.533 13.467 1.867 18.4 2.933 11.2 2.4 11.734 5.334 1.6 8.267-10.266 2.933-66.133 2.8-79.066-.133-39.733-9.2-93.2-48.267-118.933-87.067-10.534-16-15.6-22-18.267-22-2.933 0-2 2.667 7.733 22 16.134 31.6 28.534 47.733 68.534 88.667 37.6 38.533 53.066 58.133 63.999 81.73 12.934 28 16.534 44.4 17.6 79.07 1.734 59.07-9.2 110.27-34.533 161.87-8.8 18.13-13.067 28.13-13.067 30.8 0 3.06 4.8.53 11.6-5.87 7.2-6.8 25.467-30.13 33.067-42.27 18.667-29.6 33.867-68 39.467-99.73 2.4-12.67 2.933-23.07 3.466-55.6.8-42.8-.666-68.27-4.666-86.8l-2.4-10.8 22.666-.8c26-.934 34.934-2.8 50.934-10.4 21.6-10.267 49.733-34.8 60.266-52.534 10.934-18.4 15.2-36.133 15.2-62 0-26.933-4.8-53.2-12.8-70-12-24.933-43.466-50.133-71.466-57.333-6.4-1.733-12-2.133-21.334-1.6-14 .667-23.466 3.867-34 11.333-21.333 14.934-26 46-11.333 74.934 6 11.866 17.2 20 19.467 14 .4-1.067-.534-6-2.267-10.934-4.133-12.533-3.867-21.2.933-30.8 10.134-19.733 34-20.8 51.2-2.133 6.8 7.333 10.134 14.133 12 24.267 3.467 19.733-6.533 41.866-23.733 51.866-11.2 6.534-31.2 8.934-47.2 5.6-24.4-5.066-46.133-25.066-55.6-51.066-2.933-8.267-3.333-11.6-3.333-26.8C734 751.866 738 742 754.4 726.4c10.934-10.267 33.6-25.6 44.934-30.267 7.466-3.2 9.866-3.467 34.133-3.867 30-.533 37.333.667 51.867 8.534 23.733 13.066 51.6 39.2 68 64.133 19.733 30 21.733 36.8 21.866 77.067.134 33.333-.533 36.933-10.533 56.933-10.933 21.867-37.733 66.667-41.867 70.133-12 10-57.2 34.804-68.933 37.734-3.2.8-6.4 2.27-7.2 3.2-2.133 2.53-4 21.73-4 41.33 0 38.8-4.8 68-19.333 118.4-34.8 121.2-62.267 176.94-119.867 242.94-5.733 6.53-25.466 27.6-44 46.66-41.2 42.54-46.666 48.54-45.866 49.47 1.466 1.33 40.8-19.47 56-29.73 56-37.47 113.066-96.8 155.599-161.74 15.6-23.73 22.4-39.2 37.334-83.6 18.933-56.4 34-117.06 37.333-150.53 1.467-13.73 4.4-20.8 13.467-32.27 6.533-8.26 7.2-8 12.8 4.14l3.866 8.26-.133 34.67c-.133 37.6-1.467 52.4-8.533 87.33-7.734 38.54-19.067 73.07-38.934 118.67-11.866 27.33-15.733 37.47-15.733 42.27 0 6.66 3.6 3.06 17.733-17.6 30.4-44.67 52.934-91.6 73.734-153.34 14.533-43.6 16.8-57.46 18.533-115.33.933-32.53 2.533-49.47 5.333-57.33 1.2-3.204 6.134-11.337 11.067-17.871 14.933-20.133 21.733-32.133 31.463-55.733 15.87-38.4 21.2-66.8 21.2-113.066-.13-53.2-6-86-24-134.534L1018 671.6l-21.733-5.6c-55.333-14.4-79.2-27.467-114.4-62.134-14.133-14-18.933-20.666-17.333-24.533.933-2.667 5.733-2.4 24.8 1.467 9.066 1.866 18.666 2.266 48.666 2.266 64.67.134 86.67-4.8 117.87-26.133 12.93-8.8 38.53-34.4 48.4-48.267 20.8-29.466 32.13-61.333 29.73-83.866-3.2-29.067-11.73-53.867-25.87-74.8-9.86-14.534-5.86-15.467 8.54-1.867 10.26 9.733 18.53 21.6 24.4 34.533 5.2 11.734 10.8 28.934 12.93 40.4 6.13 32.667-2.8 86.267-22.13 132.8-9.74 23.467-10.67 26.8-6.8 26.8 5.06 0 14.66-9.333 23.86-23.066 12.67-19.067 25.6-50.534 39.6-95.467 8.67-28.133 14.67-43.867 23.07-60.8 17.33-34.667 42.4-61.2 79.6-84 18.13-11.067 48.8-26.533 61.2-30.533 22.93-7.734 70.67-15.467 95.6-15.467 13.87 0 17.47-1.067 14-4-4.8-4-17.47-5.6-48.4-6.267-36.13-.8-51.2.4-84.27 7.067-70.93 14.133-94.93 25.067-132.4 60.4l-14.53 13.6-19.6-19.2c-10.93-10.533-23.87-22.133-28.93-26-17.47-13.067-39.6-23.333-59.87-27.733-12.93-2.667-40.4-3.067-52-.667-39.6 8.267-76.8 31.733-92.533 58.267-7.733 13.2-14.533 30.533-17.067 43.6-3.733 19.733 1.067 41.866 12.934 60.266 8.533 12.8 18.4 20.667 32.133 25.2 17.2 5.734 26.8 4.134 43.333-7.333 10.13-6.933 24.8-21.467 27.33-27.2 3.07-6.533 3.47-21.6.67-25.333-2.67-3.734-5.33-1.734-11.47 8.4-7.73 13.066-15.33 17.866-27.996 17.866-8.534-.133-16.4-4.266-20.934-11.2-3.2-4.8-3.733-6.8-3.733-15.6 0-13.466 4.267-22.533 15.6-34 9.6-9.466 15.2-12 32.663-14.133 12.94-1.6 26.67.133 33.2 4.133 16.27 10 29.47 56.8 23.2 82.534-4.66 19.733-20 38-40 47.733-14.8 7.2-24.13 9.6-41.996 10.533-33.734 1.734-62.134-8.933-77.734-29.2-26.8-34.8-28.666-104.4-4.133-150.4 15.333-28.666 39.733-50.8 75.2-68.4 29.063-14.4 53.733-20.933 79.733-20.933 31.33 0 55.2 8.533 90.27 32.267 20.53 14 27.2 17.466 31.06 16.266 1.6-.4 15.34-7.333 30.4-15.333 31.87-16.933 49.6-24.933 75.34-34.267 51.33-18.533 95.73-30 158.26-41.2 39.2-6.933 90.4-4.266 151.07 8.134 24.93 5.066 35.47 8 72.4 20.266 18.93 6.134 34.93 11.2 35.87 11.2 13.33 0-54.54-35.733-98.8-52.133-22-8.133-64.8-17.067-120.67-25.067-44.8-6.533-62.67-7.466-85.6-4.933-53.33 6.267-130.53 25.867-182 46.4-22.53 9.067-37.47 14.133-45.87 15.867-7.06 1.333-8.53 1.2-11.46-.667-4.4-2.933-4.67-10.8-.4-16.267 24.4-31.333 147.06-75.333 247.73-88.8L1431.33 94l-12-.8c-29.33-2.134-75.06-.667-108 3.6-49.06 6.266-100.26 20.266-152.66 41.866-57.34 23.734-62.27 25.2-72.67 22.667-17.47-4.267-60.53-2.933-95.333 2.8-32.533 5.467-68.933 20.133-108 43.6-39.467 23.6-68 49.467-89.067 80.533l-12.4 18.267 7.2 14.4c10.534 21.067 14 30.667 17.867 48.8 2.933 14.267 3.2 18.667 2.8 35.6-.533 17.2-1.067 20.667-4.8 32C799.334 452 791.334 466.4 786.8 468.4c-4.4 2.133-6.266-.934-7.333-11.867-1.733-17.2-12-40-30.4-67.333-18.8-28.267-40.933-47.6-73.733-64.667-29.333-15.2-55.067-22.133-82.4-22-20.533.133-31.2 2.933-51.6 13.6C512.401 331.2 491.601 354 469.467 394.8c-7.6 13.733-13.866 21.733-16.533 20.8-3.067-1.067-1.6-22.8 2.4-34.934 11.467-35.066 39.067-73.333 65.333-90.666 25.867-17.067 56.534-29.067 88.667-34.534 19.867-3.466 28-5.6 28-7.466 0-5.467-41.333-4.667-71.2 1.333-18 3.733-30.933 7.733-63.2 19.6-34.533 12.667-43.867 14.933-63.6 15.867-22.4 1.2-84.8-1.6-97.6-4.267-24.533-5.067-67.067-26.8-99.467-50.933-13.733-10.134-37.866-33.467-54.666-52.667-10.134-11.467-15.2-13.733-13.6-6 6 27.467 64.666 92.133 112.266 123.467 25.867 17.066 47.467 26.933 90.8 41.333 29.067 9.733 36.267 13.2 36.267 17.6 0 1.333-1.467 8.533-3.2 16-9.2 37.867-6.933 72.667 7.2 105.467 12.533 29.333 38.267 56.533 69.2 72.933 25.6 13.733 53.467 14.667 85.733 2.933 25.2-9.066 50.8-30 59.867-48.666 3.867-8.267 4.4-10.534 4.4-20 0-8.4-.8-12.4-3.6-19.067-10.533-25.467-32.4-42.667-55.6-44-11.333-.667-19.333 1.067-24.533 5.2-3.2 2.533-3.467 3.067-1.734 4.8 1.067 1.2 6.4 2.533 12 3.067 20.934 2.4 32.934 14.4 32.934 32.8 0 16.933-14.8 29.333-34.8 29.066-12.534 0-23.067-5.466-34.934-17.733-25.333-26.267-24.133-56.933 3.467-88.667 30.133-34.8 96.8-17.066 122.8 32.534 8.4 15.866 13.867 43.866 12.133 61.333-4 40.8-23.733 66-71.466 91.2-45.067 23.733-88.267 25.6-130.267 5.467-31.733-15.2-65.333-44.667-85.2-74.934-15.467-23.466-22.267-44.933-25.6-81.066-2.133-21.734-4.133-34-6.133-38-1.334-2.534-3.867-4.134-10.267-5.867-17.867-5.333-72.133-35.067-112.8-61.733C118.667 247.866 52.267 167.2 18.801 68.666 13.6 53.333 2.667 11.866 2.667 7.6c0-1.2-.666-2.534-1.466-3.067C0 3.866-.133 11.466.4 33.466Z" fill="#fff"/></g><defs><clipPath id="a"><path fill="#fff" d="M0 0h1706.67v1509.33H0z"/></clipPath></defs></svg>