<svg width="1516" height="1707" fill="none" xmlns="http://www.w3.org/2000/svg"><path d="M962.667 11.867c-49.334 16.933-84.4 31.6-128.267 53.6C753.467 106 670.8 162 607.467 219.333c-15.067 13.734-16 14.267-20.667 13.6-2.666-.4-15.6-2.533-28.8-4.8-37.733-6.4-63.6-8.533-81.2-6.8-20.4 2-35.2 5.867-50.8 13.2-16.267 7.734-31.733 19.067-43.6 32-8.533 9.2-21.467 26.934-20.4 27.867.267.267 7.6-3.333 16.4-8.133 26.133-14.4 44-21.067 63.6-23.734 14.133-1.866 20-.266 39.333 10.534 15.334 8.533 21.6 14.933 23.2 23.6 1.2 6.4-1.866 9.866-13.866 16-6.8 3.466-11.6 7.6-22.534 19.333-34.933 37.6-68.4 58.267-110.666 68.667C342 404.4 335.333 407.733 326.8 416c-7.067 6.933-9.467 12.4-9.467 22.267 0 7.333-.266 7.866-3.6 9.333-2.133.8-15.2 6.267-29.066 12.133-29.067 12.134-67.2 25.2-86.4 29.6-10.934 2.4-14.267 3.867-20.8 8.8-17.2 12.934-32.534 36.134-38 57.334-2.934 11.866-3.867 24.533-2.134 29.2 2.934 7.733 12.134 18 26 29.2 16.4 13.2 26 17.2 41.334 17.333 19.066 0 32.8-8 63.066-36.933 24.134-23.067 27.2-25.334 49.067-35.6 20.133-9.6 34.4-14.267 51.2-16.8 22.133-3.334 32.267-2.4 110.667 9.2 35.466 5.2 40 5.6 66.666 5.6 30.534 0 40.934-1.2 58.934-6.8 34.667-10.934 66.4-53.2 73.2-97.734.933-6 2.266-10.8 3.066-10.8 2.134 0 19.334 12.934 26.934 20.134 23.466 22 40.8 48.533 51.2 78.133 1.333 3.733 3.2 8.133 4 9.867 2.533 4.533 3.733 1.066 4.8-12.934 1.066-14.8-.667-29.466-7.467-65.733-2.933-15.733-5.333-28.667-5.333-28.933 0-3.867 20.8 10.4 39.066 26.8 7.867 6.933 14.267 12.4 14.267 12 0-1.6-3.467-7.2-24.4-39.867-11.733-18.267-21.6-34.133-21.867-35.333-.266-1.2.667-3.334 2.134-4.667 2.533-2.267 3.6-2.267 13.733-.8 31.467 4.533 57.467 18.4 76.133 40.667 17.467 20.666 23.2 35.333 21.867 56-1.333 21.6-9.467 38.533-30.267 62.933-21.733 25.6-77.866 56.667-138 76.667-104.533 34.533-248.266 38-380.133 9.2L310 641.6l8.667 8c17.733 16.4 39.2 31.333 59.866 41.733 14.934 7.467 19.6 9.2 36.667 13.867l13.2 3.6-7.2 4.133c-30.133 16.934-71.467 27.733-130.533 33.867-15.067 1.466-15.6 1.733-28 8.933C212.933 784.8 150.8 832.4 112.933 870.267c-41.066 41.066-72 85.6-88.666 127.733-5.867 14.8-16.667 50.13-19.6 64.27-6.8 32.13-5.867 68.93 2.666 104 9.467 38.53 28.534 89.86 47.6 127.46l6.8 13.6 1.867-10.66c.933-5.87 4.4-30.14 7.867-54 5.466-39.34 6.4-43.6 9.2-46.54l3.2-3.2L92 1205.47c34 52.13 49.733 114.13 47.6 187.73-1.867 63.47-13.333 110.8-40.266 166.4-12.534 25.73-12.934 25.07 5.999 11.2 14.534-10.53 44.667-41.2 56.8-57.73 18.8-25.47 26.4-39.2 44.667-80.67 25.333-57.87 39.733-90.13 41.067-92.27.933-1.33 6.533 1.47 24.933 12.54 76.267 45.86 149.867 82.4 198.933 98.8 17.2 5.73 37.6 11.2 41.6 11.2 3.067-.14-3.066-4.67-17.333-13.07-15.6-9.07-36.267-23.6-43.2-30.53-5.6-5.6-9.467-10.8-8.533-11.74.8-.8 48.266 18.27 96.4 38.67 22 9.47 43.2 18.4 47.066 20 4 1.73 7.867 3.73 8.667 4.53.8.8 2.267 1.47 3.333 1.47 5.067 0 83.334 39.2 103.467 51.87 40.133 25.2 66.933 46.13 98.533 77.33 29.467 28.93 48.134 52.53 67.467 84.8 5.2 8.8 10 16.93 10.667 18 1.866 2.8 1.866-19.47 0-35.73-7.067-65.2-40.534-128.94-97.2-185.34-31.334-31.33-61.067-55.06-104.667-83.6-13.2-8.66-24.267-16-24.533-16.26-1.2-.94.933-1.6 13.2-4.14 36.666-8 72.8-18.66 94.666-28.13 6.934-2.93 13.067-5.47 13.6-5.47.534 0 3.467 4.8 6.4 10.54 24.934 48 68 83.6 122.667 101.46 19.467 6.4 35.867 9.87 63.467 13.2 21.733 2.67 77.463 5.87 85.863 4.8 2.54-.26 13.74-.8 24.8-1.2 34.67-1.33 72.14-7.33 98.94-16.13 7.86-2.53 15.06-5.2 15.86-5.73.94-.54-24.26-.8-56-.54-55.6.54-58.53.4-83.6-2.93-27.33-3.47-46.8-8.67-66.93-17.87-19.867-9.06-49.733-32.26-41.467-32.26 1.334 0 6.934 1.33 12.4 2.8 12.934 3.46 42.134 4.8 57.337 2.66 14.53-2.13 36-8.4 43.2-12.66 7.46-4.4 12.26-10 16.93-20.14 3.2-6.66 7.07-20.66 5.87-20.66-.14 0-8.4 4.13-18.14 9.2-28.66 14.8-34.53 15.73-56.26 8.66-17.737-5.86-34.137-19.2-40.937-33.33-6.133-12.67-1.333-30.4 13.2-47.87 13.467-16.4 48.537-31.33 86.397-36.93 16.94-2.53 62.54-2 81.74.8 28.4 4.27 71.06 15.2 88 22.67 4 1.86 14.4 6.4 23.2 10.26 19.06 8.4 28.13 14.14 40 25.34 20.8 19.33 33.46 42.13 42.13 75.33 2.27 9.07 6.53 34.8 6.67 40.27 0 3.2 2.66.13 12.13-13.87 9.2-13.73 21.2-36.53 21.2-40.27 0-3.6 3.47-.53 12.27 11.07 19.06 25.07 33.2 61.47 39.33 101.2 3.2 20.53 3.2 61.47 0 82.13-5.6 36.54-18.53 69.34-39.07 99.07-3.86 5.73-6.26 9.87-5.33 9.33 1.07-.53 8.4-6.93 16.4-14 50.93-45.33 90.4-107.33 102.53-161.06 12.27-54 3.2-125.34-23.06-182.67-13.2-28.93-37.47-63.87-59.6-86.13-22.14-22-75.34-62.67-126.8-96.67-129.34-85.6-282.27-150-437.337-183.867-6.533-1.466-13.466-3.066-15.2-3.466-6.533-1.467-.133 3.2 18.267 13.2 29.733 16.4 63.467 35.333 65.2 36.933.933.8 9.333 6 18.667 11.6 25.466 15.07 71.863 46.13 93.063 61.87 30 22.53 62.67 51.6 60.4 53.86-.26.4-5.06-.26-10.53-1.2-5.47-1.06-20.93-3.73-34.53-6-13.6-2.26-34.67-5.86-46.94-8-12.263-2.13-29.997-4.93-39.33-6-23.467-2.8-64.933-5.2-71.467-4l-5.333.8 13.867 7.2c7.6 3.87 25.733 12.67 40.133 19.47 14.533 6.67 26.133 12.4 25.867 12.67-.267.26-10.8 2.26-23.6 4.4-32 5.6-56 11.06-76.8 17.6l-17.6 5.46-17.734-17.2c-9.733-9.46-23.466-21.2-30.4-26.13-15.866-11.33-45.466-26.13-64.666-32.4-18.534-6-59.334-14.13-59.334-11.87 0 .27 4 2.4 8.934 4.67 27.066 12.4 46.8 32.4 56.133 56.93 3.2 8.14 3.467 10.67 3.6 29.6 0 14.14-.533 22.27-1.867 25.87-4.133 11.87-34.8 38.27-58.8 50.8-44.933 23.2-112.4 32.27-178.933 23.87-34.4-4.27-68-11.74-82.4-18.14-8.667-3.86-25.333-14.26-25.333-15.86 0-.54 4.666-1.34 10.4-1.74 52.266-4.53 107.2-15.46 143.733-28.66 16.267-5.87 29.867-11.74 29.867-12.8 0-.54-7.334-.54-16.267-.27-44.933 1.33-103.867-3.07-139.067-10.27-50.266-10.4-100-33.46-118.933-55.2-21.867-25.06-32.533-52.8-32.267-83.2.134-13.2 2.267-26.93 4.134-27.06.4 0 6.133 7.2 12.666 16 40.667 54.93 80.267 88 115.867 96.53 12.267 3.07 23.467 4.27 22.4 2.67-.4-.67-7.733-6.8-16.267-13.6-26.533-21.2-41.2-42-46.266-65.74-2.934-13.86-2.534-22.26 1.866-34.8C385.867 985.333 414 953.2 450 931.733c22.4-13.333 41.067-20.933 68.533-27.6 36.667-9.066 136.534-28.533 142.534-27.866l3.6.4-6 5.733c-13.734 13.333-32.667 24.133-55.334 31.467-5.866 2-11.6 4-12.666 4.4-6.134 2.666 46.133 3.866 72.666 1.733 39.6-3.333 93.867-13.467 123.334-22.933 20.933-6.667 192.666-86.134 214.263-99.2 48.4-29.067 83.2-58.934 113.07-97.2 4.53-5.867 9.33-12.8 10.67-15.334 2.66-5.066 10-14.666 11.2-14.666.53 0 4 5.2 7.73 11.6 24.4 41.866 40.67 90.533 46.4 139.866 2.27 19.867 2.67 61.467.67 77.867-1.87 14.4-6 35.467-9.47 47.067-1.47 5.066-2.53 9.733-2.27 10.399.8 2.267 22.8-16.266 41.2-34.666 40.67-40.8 65.2-84.533 75.2-133.467 11.6-56.933 4.14-112.266-24.13-177.066-21.2-48.667-55.73-103.2-100.4-158.8-21.47-26.4-26.93-33.734-26.4-34.4 1.2-1.067 37.73 12.533 61.33 23.066 33.47 14.667 74 37.334 108 60.4 41.47 28 59.34 41.734 105.47 82 13.2 11.334 24.27 20.534 24.53 20.267.94-1.067-10.4-26.533-20.53-45.867-36.13-69.733-86.8-130.533-151.2-181.6-17.47-13.733-47.6-34.933-58.93-41.2-4.14-2.4-7.74-5.066-8.14-6-.8-2 8.4-4.133 43.74-10.133 13.2-2.267 28.8-4.933 34.66-6 17.6-3.333 91.07-13.733 112.67-16 10.93-1.2 21.33-2.533 22.93-3.2 2.54-.933 2.14-1.2-2.4-1.867-2.8-.4-12.13-1.466-20.53-2.266s-24.67-2.267-36-3.334c-11.33-1.066-26-2.266-32.67-2.666-6.53-.534-22.8-1.734-36-2.667-13.2-1.067-32.13-2-42-2.267-9.86-.133-20.93-.666-24.66-1.2-3.6-.533-18.94-1.333-34-1.733-51.74-1.6-70.94-2.533-69.07-3.6 2.13-1.2 58.67-17.2 112.4-31.733 98.93-26.8 188.53-48.534 241.73-58.667 15.2-2.933 30-5.867 32.94-6.533l5.33-1.2-7.33-.934c-7.87-1.066-195.74-.133-201.34.934-1.86.4-13.46 1.066-26 1.6-73.6 2.8-171.6 12.266-247.73 24-28.27 4.4-68.4 11.6-74.933 13.333-1.467.4-3.6.133-4.667-.533-1.6-1.067-1.333-2 2-5.467 2.267-2.267 7.333-6 11.467-8.267 4.133-2.133 9.2-5.733 11.333-7.866 3.467-3.6 3.467-3.867.933-3.867-3.866 0-79.2 13.6-107.066 19.333-29.2 6-67.6 15.2-89.2 21.334-9.2 2.533-17.067 4.666-17.6 4.666-1.334 0 .533-6.266 3.466-12.133 6.4-12.4 18.134-21.867 34.134-27.467 5.066-1.733 22.8-5.866 39.466-9.066C874 178.133 879.2 176.8 876 175.6c-6.4-2.4-31.733-9.067-42-11.067-6.533-1.2-12.533-2.666-13.067-3.2-1.466-1.2 8.534-14.266 21.867-28.533 17.867-19.067 44.933-43.334 76.667-68.667 36.666-29.2 71.866-57.333 75.733-60.4 2.667-2.266 2.667-2.4.133-2.266-1.466 0-16.133 4.666-32.666 10.4Zm-380 339.733c-.134.667-10.4 9.733-22.934 20.4-12.666 10.667-32.133 28.533-43.6 39.6L495.467 432H460.8l-34.8-.133 6.667-6c40.4-36.267 87.733-61.334 136.933-72.4 13.333-3.067 13.067-3.067 13.067-1.867Z" fill="#fff"/></svg>