<svg width="500" height="378" fill="none" xmlns="http://www.w3.org/2000/svg"><g clip-path="url(#a)" fill="#fff"><path d="M163.477.547c-.664.273-1.719 1.093-2.305 1.835-.938 1.094-1.094 1.563-.938 3.086.196 1.835 1.68 5.428 2.813 6.834.625.742.664.742.351-.586-.156-.742-.312-2.5-.312-3.827 0-2.148.117-2.578.937-3.242 2.032-1.64 5.235-.663 8.165 2.578 1.914 2.109 4.609 6.327 4.296 6.64-.117.117-1.211.078-2.5-.118-4.726-.625-7.187.469-7.187 3.164 0 3.476 5.859 11.599 14.297 19.8 4.804 4.648 8.125 7.46 7.383 6.21-.469-.781-5.704-7.499-8.047-10.31-2.422-2.89-5.039-8.007-5.039-9.803 0-1.21.117-1.328 1.172-1.328 3.085 0 6.25 2.851 10.898 9.764 10.195 15.153 25.039 45.303 48.477 98.495 3.945 8.983 7.265 16.247 7.304 16.169.274-.235-17.265-40.461-28.32-65.065-21.836-48.662-31.328-66.393-40.313-75.414-2.031-2.031-4.414-4.062-5.273-4.453-2.031-.937-4.414-1.132-5.859-.43ZM336.132 3.24c-2.93 1.407-5.742 3.79-8.945 7.695-7.696 9.256-16.602 24.916-32.344 56.902-11.797 24.019-36.446 76.234-36.133 76.547.078.078 2.578-5.038 5.547-11.287 28.008-59.246 47.148-94.785 56.719-105.369 3.515-3.866 7.968-5.546 8.242-3.124.156 1.523-2.735 6.912-5.352 9.998-4.258 4.882-8.242 9.802-8.242 10.076 0 1.289 12.969-10.857 17.227-16.13 3.086-3.827 5.039-7.537 5.039-9.529 0-2.578-3.086-3.866-7.422-3.085-1.172.234-2.227.351-2.266.273-.351-.312 2.227-4.062 4.297-6.288 2.539-2.695 4.219-3.67 6.328-3.67 1.602 0 2.813.975 3.203 2.577.235.976-.195 4.413-.82 6.21-.469 1.366 1.25-.938 2.383-3.203 1.914-3.827 1.679-6.249-.781-8.123-1.993-1.524-4.18-1.64-6.68-.47ZM71.172 34.953c-4.688.625-5.313.781-3.984 1.094.546.117 3.515.781 6.64 1.445 11.29 2.5 34.336 9.685 43.164 13.474 16.836 7.225 42.852 22.339 76.485 44.444 5.078 3.358 9.257 5.936 9.257 5.741 0-.313-10.976-10.897-16.796-16.247-17.774-16.247-41.836-33.626-55.665-40.226-9.921-4.726-19.531-7.616-31.25-9.373-5.546-.86-22.578-1.055-27.851-.352Z"/><path d="M28.906 38.937c-4.727.468-9.805 1.68-18.672 4.452C4.726 45.107.156 46.59.117 46.63c-.157.157 5.351 17.653 6.171 19.567 3.32 7.81 11.953 16.442 23.868 23.94 1.445.898 2.695 1.64 2.734 1.64.078 0 .078-1.093 0-2.46-.195-3.671.977-6.483 3.984-9.451 7.891-7.85 25.977-11.326 53.399-10.35 13.867.508 22.5 1.719 36.015 5.116 21.446 5.39 44.571 14.92 72.93 30.072 13.867 7.382-10.898-7.693-31.25-19.058-22.891-12.77-48.945-25.698-64.453-31.947-19.414-7.85-39.844-13.005-58.008-14.645-4.023-.352-13.515-.43-16.601-.117Zm24.218 6.483c10.664 1.874 22.5 5.39 34.414 10.232 8.243 3.32 8.32 3.398 4.258 3.163-1.836-.156-10.351-.351-18.945-.468-25.977-.43-33.203.625-38.438 5.506-2.226 2.07-3.554 5-3.554 7.811 0 2.031-.157 2.07-3.711 1.172-3.36-.898-6.25-2.695-9.414-5.897-6.758-6.835-7.54-13.864-1.914-17.73 3.046-2.11 6.758-3.399 13.086-4.531 4.843-.86 17.265-.469 24.218.742ZM414.453 38.937c-12.578.468-25.898 3.28-36.757 7.733-18.555 7.576-46.211 26.986-70.508 49.442-6.875 6.327-8.164 7.655-6.25 6.445.664-.391 5.469-3.398 10.742-6.679 35.352-21.831 61.914-36.086 79.023-42.374 9.61-3.554 33.907-10.037 43.282-11.6 2.265-.35 4.179-.702 4.257-.78.43-.313-.468-.508-4.101-1.055-5.469-.82-14.453-1.328-19.688-1.132Z"/><path d="M456.445 44.913c-18.828 1.562-40.976 7.03-61.484 15.192-16.172 6.444-40.781 18.082-62.734 29.642-14.024 7.382-32.813 17.966-32.5 18.278.078.117 1.132-.352 2.265-.976 3.906-2.148 21.211-10.272 28.086-13.2 22.383-9.53 43.477-15.818 62.305-18.474 16.25-2.304 40.625-1.757 54.492 1.25 9.727 2.07 16.25 5.116 20.273 9.49 2.5 2.695 3.36 4.843 3.36 8.475 0 1.68.117 3.046.234 3.046s1.758-.937 3.594-2.07c14.141-8.552 22.93-18.16 25.078-27.338 2.891-12.145-4.57-20.113-21.289-22.768-4.609-.703-15.977-1.016-21.68-.547Zm17.188 5.663c4.961.742 7.929 1.562 11.367 3.124 7.852 3.554 9.414 8.71 4.766 15.661-3.789 5.663-8.868 9.022-15.196 10.076l-1.406.234-.195-2.616c-.313-4.413-2.657-7.694-6.992-9.881-5.743-2.93-11.719-3.554-36.68-3.788l-20.078-.196 3.281-1.328c13.242-5.35 29.687-9.841 41.484-11.247 6.016-.742 14.883-.742 19.649-.04ZM80.078 78.733c-.743.078-3.555.352-6.25.586-9.532.82-18.985 2.89-24.14 5.272-6.563 3.008-9.376 6.484-8.946 11.092.273 3.28 2.148 6.522 5.937 10.388 5.313 5.39 11.328 9.491 26.953 18.317 32.461 18.317 58.321 42.96 62.539 59.558.508 1.914.586 3.359.391 6.015-.469 5.858-2.266 15.309-3.672 18.941-.429 1.093 3.555-2.109 5.742-4.648 5.664-6.522 8.868-13.903 10.977-24.955 1.836-9.725 6.289-16.247 13.555-19.84 2.695-1.328 3.281-1.484 6.132-1.484 3.672 0 5.782.859 7.422 3.046 1.836 2.382 2.344 4.101 2.344 8.084.039 5.663-1.328 9.061-7.07 17.497-6.875 10.037-8.399 12.458-10.625 16.871-4.297 8.436-5.821 14.451-6.172 24.019-.352 10.857 1.133 18.16 7.305 36.125 6.093 17.614 9.492 29.799 11.367 40.461 1.25 7.186 1.289 17.106.039 25.932-2.422 17.613-3.281 21.441-5.547 25.776l-1.133 2.148 1.25-1.445c2.031-2.265 5.235-8.787 7.11-14.45 4.296-13.045 5.039-24.214 3.515-52.255-1.484-27.26.039-34.798 7.031-34.798 5.938 0 9.961 5.468 12.149 16.442.976 4.999 1.172 19.957.39 27.612-.82 7.85-1.953 14.176-3.75 21.597-2.148 8.67-2.5 11.482-2.5 18.941.04 10.701 1.875 20.348 6.094 31.752.664 1.757 1.289 3.163 1.367 3.085.079-.117-.195-2.617-.625-5.585-2.656-18.629-1.992-34.954 1.914-46.709.625-1.875 2.461-6.014 4.102-9.256 5.938-11.794 8.984-24.058 10.039-40.148.938-14.88-.937-29.057-5.742-43.585-1.172-3.515-2.305-7.811-2.578-9.685-1.133-8.202 1.992-15.778 7.695-18.551 1.797-.859 2.5-1.016 4.805-.859 3.203.156 5.234 1.366 7.07 4.139 1.641 2.5 2.305 4.96 2.813 10.545.586 6.249.039 12.263-2.032 22.495-2.617 13.045-2.734 15.661-.937 22.925.508 2.031 1.133 5.468 1.367 7.577.742 6.366.078 19.059-1.406 25.971-.391 1.875.469-.117 1.914-4.452 4.726-14.06 6.914-27.572 6.055-37.727-.704-8.514-.04-12.341 4.414-25.58 3.046-8.944 3.203-9.569 3.359-13.552.156-3.71.078-4.57-.82-7.421-1.719-5.428-2.227-9.529-2.227-17.262 0-6.6.625-13.981 1.563-18.902.351-1.953.273-2.343-.977-5.585-1.797-4.647-5.234-11.326-8.125-15.7-7.539-11.56-17.539-20.777-27.93-25.698-6.914-3.319-18.32-6.522-28.398-8.045-6.719-.976-22.5-.976-28.477 0-6.406 1.094-6.406 1.289 0 1.562 13.125.547 23.75 3.203 28.086 6.991 5.43 4.804 3.399 8.944-5.273 10.701-4.844.976-15.899.586-23.047-.781-10.391-1.953-23.242-6.405-30.078-10.389-8.399-4.92-10.274-9.412-5.625-13.669 4.492-4.139 14.18-6.912 27.305-7.811 17.109-1.21 41.796 3.711 61.914 12.342 2.656 1.132 4.921 2.031 4.961 1.952.195-.195-3.555-2.616-8.086-5.194-29.024-16.715-62.657-27.963-91.407-30.54-4.023-.391-21.992-.508-25.39-.196Zm28.984 4.257c5.977.703 11.328 1.797 16.328 3.398 3.867 1.25 10.43 4.1 10.078 4.413-.078.078-2.187-.234-4.648-.742-14.219-3.007-20.742-2.734-24.649.977-1.914 1.796-1.992 3.28-.312 5.194 1.68 1.874 2.109 3.32 1.602 5.233-.469 1.601-2.657 5.194-3.36 5.429-.234.078-.625-.625-.898-1.484-1.055-3.398-4.805-7.382-6.953-7.382-5.235 0-8.868 7.577-5.938 12.498 1.367 2.304 2.93 3.749 7.07 6.444 6.289 4.1 9.532 7.772 10.469 11.716.547 2.343-.117 4.413-1.758 5.468-1.25.82-3.164.312-4.57-1.211-4.18-4.491-18.164-13.396-33.555-21.363-8.398-4.335-11.64-6.405-14.062-8.865-7.461-7.655-1.016-13.825 18.554-17.77 4.18-.82 11.602-1.914 16.016-2.265 4.492-.39 16.133-.195 20.586.312Zm103.242 54.169c2.422.625 5.782 2.46 8.321 4.569 4.726 3.945 10 12.537 12.5 20.348.937 2.968 1.054 3.905 1.015 8.592 0 4.569-.156 5.741-1.094 8.787-1.132 3.749-3.242 8.631-3.593 8.318-.117-.117.156-1.952.586-4.061 1.093-5.429 1.367-9.959.859-13.396-1.289-8.201-8.086-17.887-14.961-21.285-8.047-3.983-17.93-1.054-21.719 6.483-2.109 4.218-2.617 6.835-2.578 13.396.039 4.648.196 6.483.86 8.905 1.718 6.326 4.687 10.7 7.968 11.677 1.993.586 5.508-.078 6.836-1.328 1.055-.976 1.133-2.304.313-5.39-1.289-4.803-.156-9.06 3.047-11.364 5.429-3.945 14.453 2.694 14.492 10.622 0 4.531-3.086 8.202-9.453 11.17-4.766 2.226-7.774 4.374-11.055 7.811-4.883 5.155-7.461 9.803-9.141 16.559-3.906 15.427-9.804 24.175-16.25 24.175-3.242 0-8.398-3.203-11.875-7.421-.82-.976-2.109-3.085-2.89-4.686-1.367-2.851-1.406-3.085-1.406-7.42 0-5.507.898-8.436 3.867-12.849 3.75-5.468 7.109-6.952 9.531-4.179 3.242 3.71 2.891 10.232-.703 13.278l-1.25 1.016h1.445c1.992 0 4.922-1.602 6.836-3.789 1.914-2.187 4.453-7.264 5.039-10.193.586-2.89.547-11.169-.156-18.824-.313-3.554-.742-9.607-.977-13.513-1.211-21.558 3.516-32.415 15.664-35.852 3.711-1.054 6.329-1.093 9.922-.156Z"/><path d="M394.14 83.186c-22.735 2.148-47.07 8.826-71.68 19.722-9.297 4.101-23.555 11.639-24.297 12.771-.156.274-.039.352.313.196 23.789-10.155 52.461-14.88 71.992-11.834 13.516 2.148 22.695 6.522 23.906 11.443.664 2.578-1.562 5.975-5.664 8.592-6.953 4.452-22.422 9.568-34.375 11.326-6.211.898-17.578.898-21.25 0-8.828-2.187-10.898-5.937-5.781-10.545 4.18-3.788 12.383-5.858 25.781-6.522 4.18-.234 7.656-.469 7.735-.547.195-.156-5.43-1.25-9.844-1.874-5.781-.821-19.961-.586-26.758.429-6.523.977-15.273 3.046-20.234 4.765-16.914 5.936-30.938 19.332-40.469 38.625-3.125 6.405-3.164 6.561-2.266 14.606.664 5.936.586 17.536-.117 22.261-.312 2.109-1.133 5.429-1.836 7.421-2.383 6.834-2.07 10.7 1.875 23.081 3.711 11.638 4.297 16.246 3.281 26.596-.507 5.35-.117 11.95 1.211 19.644 1.094 6.561 5.196 21.91 5.664 21.402.118-.117.039-1.211-.195-2.46-.82-4.687-1.25-13.982-.859-19.137.468-5.819.82-7.772 2.265-12.966 1.563-5.507 1.485-11.521-.156-20.582-1.758-9.568-2.07-12.146-2.07-17.887.039-10.896 1.797-16.52 6.172-19.566 2.421-1.719 5.898-1.914 8.828-.469 5.547 2.695 8.711 10.115 7.656 17.77-.508 3.827-1.094 5.936-3.047 11.052-10 26.401-9.141 60.379 2.149 83.889 4.062 8.514 5.664 14.646 6.406 25.073.664 8.983-.469 23.277-2.617 33.861-.313 1.562-.508 2.929-.43 3.046.234.195 2.93-6.639 4.336-11.013 3.086-9.491 4.336-17.341 4.258-26.948 0-6.795-.118-7.889-1.25-13.083-3.477-15.856-4.805-29.643-3.985-41.437.742-10.154 2.266-16.833 4.922-21.246 1.875-3.085 2.695-3.905 5.039-5.077 5.703-2.851 9.727.352 10.821 8.592.585 4.413.312 12.029-1.055 28.51-1.211 14.567-1.485 30.15-.625 35.93 1.719 11.521 5.547 22.73 9.648 28.315 1.25 1.679 1.25 1.288.039-1.094-2.031-3.983-3.047-9.139-4.336-22.183-1.562-15.778-1.289-22.886 1.446-34.329 2.383-10.037 6.25-21.909 13.164-40.109 5.039-13.278 6.953-22.925 6.523-33.118-.234-6.131-.82-9.685-2.422-14.606-2.148-6.679-4.297-10.818-11.328-21.754-6.992-10.857-8.515-14.411-8.515-19.878 0-4.296.859-6.991 3.046-9.139 4.61-4.609 13.165-2.851 19.375 3.905 3.672 4.062 5.782 8.866 6.836 15.661 1.329 8.436 3.633 15.153 7.071 20.738 1.797 2.89 8.125 9.803 8.593 9.334.118-.117-.039-1.172-.39-2.343-1.016-3.554-2.188-11.092-2.461-15.934-.195-3.984-.117-4.843.625-7.421 3.945-12.927 20.742-30.228 44.453-45.811 7.227-4.725 13.477-8.357 23.867-13.864 12.5-6.6 18.672-10.74 23.946-16.051 6.835-6.874 7.382-13.24 1.601-17.77-5.898-4.648-15.898-7.499-32.812-9.412-6.289-.703-26.25-1.055-31.719-.547Zm21.289 4.1c19.141 2.149 33.437 7.03 36.133 12.264 1.601 3.163.703 5.624-3.36 9.373-2.304 2.109-4.023 3.085-13.593 7.85-16.211 8.006-25.625 13.552-32.383 19.019-1.641 1.328-3.477 2.578-4.024 2.695-1.484.391-2.851-.43-3.515-2.07-1.836-4.296 2.343-10.271 10.586-15.192 6.172-3.671 8.359-6.483 8.398-10.74 0-3.866-2.812-7.616-6.094-8.045-1.25-.156-1.797.039-3.203 1.054-1.914 1.367-3.867 3.984-4.804 6.366l-.625 1.601-1.25-1.718c-1.446-2.031-2.422-5.077-2.11-6.639.117-.664.625-1.602 1.172-2.187 1.641-1.797 2.109-2.734 1.836-3.828-.43-1.718-2.969-3.632-6.055-4.57-2.461-.741-3.398-.82-7.734-.624-2.695.117-7.539.664-10.742 1.21-3.203.547-5.938 1.016-6.055 1.016-.43-.039 2.852-1.68 5.234-2.617 3.399-1.366 11.954-3.475 16.016-3.983 1.953-.234 3.945-.508 4.492-.586 2.774-.39 17.149-.156 21.68.352Zm-116.172 51.201c11.484 3.437 16.172 12.849 15.469 31.205-.156 3.436-.703 10.115-1.25 14.84-1.367 11.482-1.68 20.621-.86 23.902 1.329 5.077 4.61 10.154 7.813 11.989 1.719 1.016 4.57 1.719 4.57 1.172 0-.195-.625-.976-1.406-1.718-1.602-1.602-2.617-4.57-2.266-6.64.782-4.764 2.969-7.693 5.469-7.303 1.797.313 3.672 1.836 5.586 4.57 2.188 3.124 3.398 5.936 4.18 9.841.547 2.734.586 3.71.195 6.171-.82 5.311-3.75 9.998-8.359 13.513-3.672 2.773-6.133 3.788-8.672 3.593-6.758-.547-11.719-8.827-15.742-26.167-1.25-5.389-4.454-11.13-8.946-15.934-2.773-3.007-5.976-5.311-10.429-7.459-3.633-1.758-6.641-4.296-7.852-6.601-1.055-2.03-1.211-5.741-.391-8.24 1.329-4.023 6.641-8.202 10.313-8.162 3.047.039 6.25 3.124 7.07 6.873.352 1.601.313 2.5-.429 5.663-.508 2.226-.743 4.218-.586 4.843.546 2.07 6.132 3.358 8.789 1.992 2.539-1.328 5.039-5.078 6.601-9.998 1.211-3.789 1.641-6.718 1.641-11.287-.039-9.178-2.813-15.505-8.086-18.278-8.047-4.257-15.586-2.968-22.383 3.867-4.297 4.374-7.734 10.388-8.828 15.582-.742 3.476-.547 9.842.43 14.568.351 1.679.547 3.124.429 3.241-.39.391-2.304-4.061-3.281-7.654-.82-3.086-.976-4.648-1.016-8.827 0-4.569.118-5.428 1.094-8.396 3.985-12.107 11.797-21.558 20.196-24.605 2.695-.976 7.929-1.054 10.937-.156ZM257.304 147.04c-.938 1.953-.782 2.265.156.468.43-.859.742-1.601.664-1.679-.117-.078-.469.469-.82 1.211ZM247.657 156.139c-.821.821-1.68 2.187-1.954 3.086-.429 1.406-.429 1.796.157 2.616 1.211 1.875 6.679 2.383 8.984.899 2.695-1.758-.703-8.085-4.336-8.085-1.094 0-1.719.313-2.851 1.484ZM248.983 165.59c-1.328.547-2.851 2.656-3.515 4.999-1.094 3.75-.313 9.373 2.5 17.692 1.015 2.968 1.094 3.398.586 4.101-3.321 4.335-4.922 17.731-4.102 33.899.82 15.973 4.219 45.928 5.156 45.342.625-.39 3.086-16.715 4.883-32.649 2.383-21.09 1.797-38.625-1.445-44.991l-.899-1.836 1.68-5.116c3.008-9.217 3.399-14.645 1.328-18.668-1.289-2.499-3.906-3.71-6.172-2.773Z"/></g><defs><clipPath id="a"><path fill="#fff" d="M0 0h500v377.266H0z"/></clipPath></defs></svg>