<svg width="500" height="325" fill="none" xmlns="http://www.w3.org/2000/svg"><g clip-path="url(#a)"><path d="M128.007 1.655c-1.055 1.719-2.813 4.844-4.961 8.906-3.086 5.86-14.219 20.547-19.571 25.86-3.945 3.945-5.43 4.96-5.43 3.672 0-.547.704-2.93 2.774-9.61l1.172-3.71-.117-10.352c-.117-8.867-.196-10.352-.703-10.352-.313 0-.625.352-.704.781-.546 3.79-1.953 9.688-3.242 13.633-2.148 6.758-6.25 15.82-7.539 16.719-.976.664-1.406-.625-1.406-3.945 0-5.86-1.016-11.836-3.32-19.727-.899-3.125-1.29-2.344-1.758 3.946-.82 10.234-2.578 19.765-4.57 24.53-1.485 3.633-2.07 3.712-2.07.313 0-6.719-1.563-18.047-2.579-18.906-.703-.547-.742-.39-1.328 4.336-1.25 10.312-2.617 15.781-6.016 24.023-1.757 4.22-2.421 5-5.586 6.524-2.656 1.289-4.023 2.695-6.406 6.445-.86 1.406-2.187 2.93-3.086 3.516-3.554 2.422-6.445 4.648-7.148 5.625-.547.781-.742 1.64-.703 3.398l.039 2.344-1.485.586c-.78.312-3.554 1.094-6.133 1.68-5.859 1.367-9.921 1.445-13.242.234-1.25-.469-2.343-.898-2.421-.977-.079-.078-.274-1.289-.391-2.656-.156-1.367-.43-2.734-.625-2.969-.82-1.015-2.813-.976-5.156.04-2.735 1.21-2.891 1.21-6.016.234-2.89-.899-6.64-1.016-7.695-.235-.625.43-.664.86-.47 3.516.157 1.797.665 4.023 1.29 5.508 1.172 2.969 1.094 2.422.742 9.375-.273 5.234 0 7.617.86 7.617.195 0 .546-1.094.78-2.422.548-2.773 2.618-7.148 3.79-7.969 2.07-1.445 5.078-.117 5 2.227-.235 7.344-.195 8.398.703 10.664.977 2.578 1.367 2.422 1.797-.703.234-1.875 1.523-6.016 2.539-8.164.586-1.29 1.914-1.719 3.477-1.055 1.367.586 3.671.664 6.445.234 1.406-.234 2.422-.156 3.71.313 2.188.781 3.868.781 6.212.04 2.773-.86 13.515-1.563 15.586-1.017.937.274 1.757.704 1.875 1.016.351.86-1.797 4.453-3.633 6.055-2.07 1.797-7.422 3.672-12.305 4.297-3.515.429-9.375 1.953-11.172 2.89-.586.313-3.242 2.344-5.937 4.492-4.297 3.516-5.43 4.18-10.157 6.211-2.89 1.289-6.093 2.618-7.148 2.969-2.031.781-2.422 1.406-.742 1.406 1.797 0 8.281-1.171 9.61-1.718.702-.274 4.14-2.344 7.694-4.532 3.516-2.226 7.188-4.257 8.165-4.57.976-.312 3.437-.703 5.468-.898 4.883-.469 11.016-1.953 13.672-3.282 4.219-2.109 8.125-5.703 11.055-10.234 1.172-1.758 1.406-1.914 2.812-1.914 1.407 0 1.524.078 1.875 1.367.43 1.719.157 4.414-.585 5.586-.352.469-2.11 1.797-3.946 2.93-1.836 1.094-4.844 3.437-6.719 5.156-1.835 1.719-4.14 3.555-5.078 4.141-2.226 1.289-8.554 3.476-12.304 4.257-1.602.313-3.32.665-3.75.782-.47.117-1.563.781-2.422 1.484-1.68 1.406-2.54 1.797-6.133 2.695-3.438.86-7.422 2.461-9.844 3.907-2.305 1.406-5.742 4.218-5.43 4.492.079.078 1.016.312 2.07.43 2.227.351 2.227.468.782 4.57-.977 2.734-1.602 6.836-1.016 6.836.157 0 .82-.938 1.485-2.11 1.015-1.836 3.281-4.14 4.062-4.14.508 0 1.055 1.601 1.485 4.336.82 5.586 2.343 10.625 4.96 16.406 1.797 3.945 2.696 4.062 1.407.195-.938-2.695-.586-17.187.43-19.687.39-1.016.898-1.641 1.21-1.563.313.078 1.485 1.328 2.618 2.852 1.836 2.461 4.922 5.273 5.742 5.273.195 0-.43-1.64-1.406-3.633-1.172-2.5-1.758-4.296-1.797-5.585-.117-2.227-.586-2.11 5.547-1.29 6.328.821 14.14-.195 12.109-1.601-.313-.195-1.29-.586-2.148-.82-3.594-.977-7.813-2.383-8.282-2.774-.742-.586-.625-1.797.196-2.187.351-.196 2.422-.469 4.57-.625 2.969-.196 4.922-.586 8.32-1.68 4.102-1.367 5.352-2.07 3.633-2.07-1.094 0-2.695-1.407-2.188-1.914.665-.664 7.97-3.516 11.133-4.336 1.602-.43 3.907-1.133 5.078-1.563 1.172-.43 2.188-.781 2.227-.781.078 0 .117-.313.117-.703 0-.43-.547-1.055-1.367-1.485-.742-.39-1.367-.976-1.367-1.328 0-.351 1.367-1.328 3.242-2.304 1.758-.977 4.14-2.539 5.313-3.477 1.171-.937 2.851-2.031 3.789-2.422 2.109-.937 2.46-1.484 1.367-2.305-.547-.429-.781-.898-.625-1.289.156-.351 3.36-1.953 7.344-3.672 6.093-2.578 8.007-3.632 13.476-7.343 3.477-2.344 6.328-4.453 6.328-4.649 0-.195-.312-.234-.664-.078-1.484.586-7.851 2.07-9.96 2.344-2.071.273-2.266.234-2.266-.469 0-.508 1.171-1.64 3.476-3.36 3.672-2.734 5.352-4.491 4.844-5-.195-.195-1.563.118-3.047.665-2.266.82-3.789 1.055-8.984 1.328-9.22.469-9.727-.195-3.36-4.258 2.266-1.445 4.14-2.773 4.219-3.008.078-.234-.586-.703-1.445-1.054-.86-.313-1.563-.86-1.563-1.172 0-1.055 5.04-4.922 8.867-6.875 1.25-.625 3.594-1.524 5.196-1.992 5.273-1.485 5.859-1.875 4.297-2.813-.86-.547-1.055-1.953-.274-2.578.86-.703 6.25-1.64 11.875-2.031 6.445-.469 9.961-1.133 14.57-2.774 12.305-4.414 14.688-4.843 26.172-4.765 10.118.039 12.696.39 17.891 2.5 11.016 4.414 22.109 17.89 24.766 30.117.703 3.32.859 5.312.859 11.25.039 6.836-.039 7.383-1.016 10.351-2.89 8.477-16.992 27.422-30.39 40.821-7.071 7.07-18.867 19.726-21.367 22.89-1.016 1.29-3.165 4.219-4.766 6.524-1.797 2.656-3.125 4.18-3.555 4.18-.39 0-1.562-.586-2.656-1.329-1.055-.742-2.969-1.64-4.219-2.031-2.89-.82-3.515-1.211-4.531-2.812-1.016-1.641-1.055-4.727-.117-6.211.39-.547 1.953-2.383 3.515-4.063 2.774-2.969 4.493-6.094 4.493-8.203 0-1.758 1.992-4.18 5.195-6.25 1.719-1.094 3.008-3.516 3.008-5.586 0-2.617.39-2.89 3.476-2.656l2.696.195 1.796-2.304c.977-1.29 3.75-4.961 6.094-8.204 2.93-4.062 4.961-6.406 6.406-7.5 2.149-1.64 3.477-3.789 3.477-5.546 0-.547-.156-2.227-.312-3.79-.274-2.46-.196-3.007.507-4.375.703-1.289.782-1.796.43-2.656-.664-1.719-1.484-2.422-5.117-4.258-3.125-1.562-3.672-1.718-6.328-1.718-1.602 0-3.828.195-4.883.43-2.07.429-4.102 1.718-3.75 2.343.156.195 1.641.352 3.359.352 3.125 0 4.727.468 6.328 1.875.899.781.86 1.367-.312 2.734-1.367 1.641-1.25 3.203.391 5.664.742 1.094 1.367 2.188 1.367 2.344 0 .195-1.094 1.406-2.422 2.734-1.367 1.328-4.102 4.766-6.094 7.578-2.031 2.852-3.828 5.274-4.023 5.391-.625.43-2.578-.938-3.086-2.148-.391-.938-.43-2.149-.157-5 .469-5.196.391-11.836-.195-12.891-.273-.469-1.172-1.328-2.031-1.875-.859-.547-1.875-1.524-2.227-2.188-1.953-3.554-4.609-5.117-7.343-4.218-.743.273-1.758.976-2.227 1.64-.469.664-1.914 1.68-3.203 2.305-3.906 1.836-6.641 5.117-7.656 9.062-.235 1.016-.782 2.5-1.172 3.321-.821 1.523-.977 2.812-.352 2.812.196 0 1.289-1.289 2.461-2.851 2.188-2.969 5.391-6.133 6.172-6.133.273 0 1.133.703 1.914 1.562 1.172 1.25 1.719 1.563 2.813 1.563.82 0 1.796.351 2.421.82.977.742 1.016.977 1.016 4.18 0 3.008.156 3.711 1.172 5.82 1.367 2.813 2.031 5.742 1.562 6.992-.546 1.407-1.484 1.68-4.101 1.094-4.727-1.094-4.766-1.094-6.172-.195-1.953 1.211-4.336 1.094-6.953-.313-2.383-1.289-6.602-2.265-7.5-1.757-.352.195-1.016.937-1.524 1.679-.585.899-1.445 1.524-2.5 1.875-2.07.703-4.062 2.617-5.234 5.039-.703 1.485-.937 2.774-1.055 5.821-.273 6.093 1.289 10 2.188 5.586.898-4.219 3.984-9.297 5.625-9.297.586 0 1.211.547 1.953 1.757.625.977 1.523 1.875 2.031 1.993 1.211.312 3.086-.352 5.274-1.797 1.484-1.016 2.109-1.172 4.297-1.172 1.523 0 3.437-.313 4.687-.742 3.242-1.133 5.703-1.407 5.977-.703.468 1.25-2.969 4.765-6.211 6.445-1.836.937-4.649 3.867-5.391 5.625-.312.703-.82 2.851-1.172 4.766-.312 1.914-.859 3.75-1.172 4.101-.351.352-1.445.977-2.461 1.328-1.054.391-2.461 1.016-3.164 1.446l-1.25.781v4.648c0 5.274-.039 5.235 3.399 6.367 3.554 1.211 8.242 4.532 9.258 6.485.273.586.898 3.125 1.406 5.664 1.055 5.156.898 6.914-.977 11.523-.547 1.328-.976 3.008-.976 3.75 0 1.133.195 1.368 1.289 1.836 2.226.86 3.437 1.914 3.32 2.852-.117.742-.351.82-3.047.82h-2.929l-.665 1.367c-.39.782-.703 2.266-.703 3.399 0 2.383 0 2.383-3.359 1.328-1.445-.469-4.648-.938-8.086-1.172-5.352-.352-8.086-1.016-8.086-1.914 0-.195-1.211-1.523-2.734-3.047-3.008-2.969-5.82-4.726-12.305-7.656-2.344-1.055-4.805-2.422-5.39-2.969-2.422-2.266-3.126-5.039-2.344-9.101.664-3.438.468-5.196-1.133-9.649-1.25-3.633-1.25-4.297.156-8.476.781-2.305.781-2.461.117-8.204-.351-3.242-.82-6.328-1.054-6.914-.547-1.406-3.36-2.812-4.961-2.461-.664.118-1.602.586-2.149 1.016-2.383 1.875-3.242 1.992-10.312 1.289-5.977-.586-6.68-.586-8.008 0-1.797.742-2.695 2.578-2.695 5.43.039 1.054-.313 2.812-.782 3.945-1.406 3.516-1.875 5.82-1.875 9.492 0 3.594.196 4.805.782 4.805.195 0 .547-.664.82-1.484.234-.782.86-2.266 1.367-3.282.508-1.015.938-2.187.938-2.578 0-1.133 2.343-5.547 2.93-5.547.273 0 .859.43 1.288.977.938 1.172 1.68 1.25 2.578.234.47-.508 1.446-.82 3.282-.976 1.445-.157 4.18-.625 6.094-1.094 3.398-.859 3.437-.859 4.023-.117.625.898.469 2.304-.742 5.859-1.016 2.969-.977 4.141.273 7.422.547 1.445.977 2.891.977 3.164 0 .899-1.446.625-4.297-.82-3.906-1.953-4.531-1.875-7.734 1.133l-2.657 2.539-4.61.664c-2.538.39-4.882.898-5.233 1.172-.508.39-.665 1.132-.665 3.554-.039 1.758-.312 4.063-.742 5.391-.86 3.008-.937 9.258-.078 11.328.82 1.875 1.406 1.406 1.406-1.133 0-2.383 1.172-7.226 2.11-8.633.742-1.132 1.367-1.211 3.047-.351 1.132.586 1.21.547 2.148-.313.547-.507 1.211-1.367 1.523-1.992.508-.898.782-1.055 2.344-1.055 1.563 0 2.032-.234 3.711-1.718 3.516-3.164 7.422-3.242 7.969-.157.117.704.352 2.071.547 3.047.43 2.422-.078 3.516-2.11 4.805a39.99 39.99 0 0 0-3.632 2.813c-1.68 1.523-2.188 1.718-4.727 2.109-3.36.43-5.469 1.68-6.445 3.672-1.25 2.656-1.211 3.476.273 5.39 1.094 1.485 1.406 2.227 1.602 4.493.39 3.593 1.133 6.132 2.734 8.945.86 1.562 1.563 2.383 2.11 2.461 1.015.156 1.015.195.195-2.813-.352-1.328-.625-3.945-.664-5.859 0-3.164.078-3.516.898-4.18.625-.508 1.524-.742 2.93-.742 2.422 0 2.89-.43 5.039-4.297 1.523-2.773 2.89-4.258 4.96-5.273 1.095-.586 1.915-.625 4.65-.43 4.335.313 5.585 1.133 7.929 5.234 1.523 2.657 5.078 6.524 7.305 7.969 1.328.821 2.226 1.094 3.672 1.094 2.539 0 3.203.43 4.414 2.852 4.101 8.164 9.765 13.593 17.265 16.679 1.641.703 3.281 1.485 3.594 1.797.43.43.586 1.563.586 4.766 0 3.906.078 4.336 1.172 6.328 1.523 2.812 2.578 3.047 3.711.781 1.015-1.992 3.789-5.078 4.57-5.078.43 0 .508.195.313.664-1.836 4.375-2.266 6.328-2.305 10.469-.039 3.828.078 4.492.898 6.054 3.047 5.782 8.125 10.977 9.571 9.805.273-.234.703-2.344.976-4.687.547-4.61 1.485-6.836 2.695-6.602 1.016.195 1.016 1.68.079 4.649-2.696 8.359 2.031 16.562 11.836 20.507 1.757.703 3.281 1.211 3.476 1.094.156-.117.313-.859.313-1.641.039-1.64 1.015-7.46 1.328-7.773.117-.117.468-.039.742.234.351.274.664 1.758.82 4.258.352 4.883 1.094 6.563 3.789 8.594 3.633 2.695 6.719 3.906 12.188 4.805 3.281.507 5.859.117 6.25-.977.117-.312-.274-1.562-.899-2.851-1.562-3.125-1.562-7.149 0-7.149.547 0 .899.586 1.368 2.227 1.328 4.57 4.14 7.89 7.304 8.672 2.266.546 8.672.546 11.953.039 3.047-.508 6.524-1.993 7.11-3.086.39-.743.195-1.094-1.563-3.086-2.539-2.774-3.008-3.75-2.344-4.571.274-.312.625-.586.782-.586.156 0 1.054 1.055 2.07 2.305 2.109 2.774 4.453 4.219 7.578 4.766l2.266.429 6.64-3.476c4.961-2.578 6.68-3.672 6.758-4.297.078-.469-.469-1.484-1.289-2.461-2.265-2.734-1.211-4.453 1.797-2.891 1.953.977 4.609.899 6.25-.273 3.555-2.461 8.555-6.719 9.844-8.398 1.914-2.461 2.109-3.399 1.172-5.391-.938-1.914-.782-2.578.547-2.578 2.382 0 5.39-2.539 9.609-8.164 2.773-3.711 4.492-7.031 6.601-12.696 2.813-7.539 6.368-18.32 7.344-22.109.899-3.672 3.321-11.211 3.867-12.07.508-.781 1.016-.43 2.461 1.719.703 1.054 1.758 2.187 2.344 2.5.938.546 1.25.507 3.516-.274 1.367-.469 3.437-.937 4.609-1.055 3.516-.39 3.828-.507 5.039-2.265 1.641-2.383 3.438-4.063 4.531-4.258 1.954-.391 4.102 1.484 4.102 3.555 0 1.445-1.289 4.375-2.383 5.429-.625.586-2.773 2.071-4.765 3.321-4.297 2.695-6.211 4.453-7.305 6.718-.899 1.875-1.133 3.282-2.344 13.321-.43 3.672-1.211 8.398-1.758 10.547-1.445 6.054-8.945 24.765-10.429 26.054-1.446 1.25-5.391.547-5.704-.976-.078-.391.508-2.071 1.25-3.75.782-1.719 1.407-3.477 1.407-3.907 0-.898-1.367-2.031-2.383-2.031-.352 0-1.289-.547-2.109-1.172-.821-.664-1.836-1.172-2.227-1.172-.43 0-1.68.782-2.773 1.719-1.133.899-3.008 2.305-4.219 3.086-2.813 1.758-5.547 5.781-7.696 11.289-1.914 5-3.242 10.86-2.421 10.86.195 0 1.328-1.914 2.539-4.258 2.343-4.492 7.109-10.742 8.476-11.211 1.446-.43 1.992.781 1.719 4.023-.195 2.578-.156 2.891.742 3.985 1.055 1.211 3.867 2.382 5.86 2.382 2.578 0 3.828 2.227 2.148 3.907-.43.429-1.289.781-1.875.781-3.516 0-7.891 3.086-7.891 5.508 0 1.875.43 2.344 2.539 2.734 2.618.469 2.891.82 2.852 3.399 0 1.211.195 3.007.43 3.984 1.172 5 .39 7.539-5.157 16.562-2.421 3.907-1.875 3.946 3.047.235 2.032-1.524 4.297-3.477 5.039-4.375 1.602-1.875 2.813-4.805 3.203-7.813.313-2.382.625-2.89 2.305-3.593.664-.274 1.68-1.094 2.305-1.797 1.055-1.25 1.055-1.407.82-4.492-.312-3.516.039-4.649 1.914-6.407 1.211-1.133 1.406-.976 2.422 1.68.742 2.07 2.656 4.18 4.453 4.922 1.055.43 1.328.351 3.008-.703 2.734-1.758 4.453-2.383 5.43-2.032 1.367.508 2.031 1.836 1.836 3.438-.078.781.117 2.5.429 3.789.86 3.164.782 6.992-.156 10-.664 2.188-1.562 3.945-5.312 10.391-1.094 1.875-.391 1.992 1.679.273 6.094-4.961 9.492-10.351 10.938-17.148.508-2.422.781-2.969 2.617-4.883 2.578-2.695 3.359-4.18 3.359-6.328 0-2.539-1.054-4.258-3.007-4.883-1.29-.469-1.758-.859-2.422-2.227-.43-.937-1.328-2.148-2.032-2.734l-1.25-1.055-6.914.078c-6.25.079-7.07.039-8.242-.664-1.875-1.093-2.851-3.281-2.851-6.406 0-2.226.195-2.93 1.406-5.078.742-1.406 1.797-3.789 2.265-5.273.508-1.524 1.993-5.04 3.321-7.813 2.578-5.352 4.844-10.664 5.664-13.281.273-.86 1.133-2.617 1.953-3.906 2.305-3.672 3.672-6.719 5.078-10.938 1.445-4.453 3.359-8.32 5.156-10.508 1.719-2.109 5.274-4.297 7.852-4.883 3.594-.781 3.828-1.914.664-3.359-.859-.391-1.563-.898-1.563-1.172 0-2.187 10.743-6.836 15.899-6.836 1.211 0 1.68-.156 1.601-.469-.117-.312-2.578-.937-5.976-1.562-3.164-.547-5.938-1.211-6.172-1.445-.781-.782.195-1.641 4.492-3.711 4.375-2.11 9.766-3.75 12.383-3.75 1.758 0 2.734-.508 1.953-1.016-1.992-1.25-4.726-1.797-10.351-1.992-4.883-.195-6.25-.117-7.774.43-2.383.781-2.773.781-3.086-.039-.156-.391.235-1.368 1.094-2.618.703-1.093 1.914-3.047 2.617-4.336.703-1.289 1.992-3.125 2.891-4.14 1.953-2.11 3.906-4.961 3.594-5.274-.547-.586-3.243 1.641-9.61 7.891-3.828 3.711-7.148 6.797-7.383 6.797-.703 0-.976-.781-1.601-4.844-.352-2.109-.821-3.945-1.094-4.023-.273-.118-.586.859-.898 2.617-.664 3.984-2.461 7.305-4.805 8.867-2.383 1.602-4.063 2.07-7.305 2.07-2.695 0-5.156-.859-6.328-2.187-.391-.43-1.055-1.641-1.523-2.695-2.305-5.235 1.172-12.071 8.75-17.305 3.476-2.383 4.922-3.125 9.726-4.922 9.258-3.438 17.735-4.766 24.063-3.75 11.523 1.875 20.508 8.203 25.273 17.773 2.07 4.102 2.695 6.993 2.461 11.329-.156 2.734-.391 3.554-1.875 6.445-3.633 7.109-9.336 14.492-17.226 22.187-3.008 2.93-6.407 6.563-7.54 8.086-4.257 5.625-6.835 12.266-7.89 20.235-1.641 12.461 2.031 21.679 11.406 28.593 9.102 6.719 17.422 8.516 29.375 6.25 5.899-1.132 13.945-4.414 18.828-7.734 2.383-1.602 7.539-6.641 9.297-9.062.781-1.094 2.617-3.321 4.024-4.961 5.234-6.094 6.992-9.18 9.843-17.305 3.516-9.883 5.352-18.242 6.68-30.469.586-4.961 2.383-14.297 3.594-18.515 1.562-5.43 5.664-11.68 10-15.235 3.476-2.851 3.476-3.476.039-3.633-2.422-.117-2.656-.195-2.774-1.015-.273-1.836 7.774-11.407 13.321-15.821 1.992-1.601 5.078-4.257 6.914-5.976 2.344-2.149 5-4.024 8.711-6.211 3.086-1.797 5.195-3.242 4.961-3.477-.157-.156-1.914-.429-3.828-.547-4.336-.234-8.204.547-11.993 2.461-3.164 1.602-3.32 1.641-3.32.586 0-1.562 1.133-3.008 6.094-7.812 7.461-7.188 11.445-9.961 20.703-14.492 7.422-3.594 9.453-4.454 13.242-5.43 4.258-1.094 3.203-1.953-2.383-1.992-2.773 0-5 .195-6.406.586-1.172.351-3.281.82-4.687 1.015-2.735.43-6.915 1.68-8.672 2.578-1.485.782-1.875.704-1.875-.468 0-1.407 7.929-9.219 13.672-13.516 7.89-5.859 12.89-8.633 21.484-12.031 1.836-.703 3.594-1.524 3.906-1.836.508-.508.313-.547-1.562-.313-9.805 1.133-18.438 4.22-26.368 9.336-6.171 4.024-17.148 13.438-19.804 16.992-1.485 1.993-2.031 1.329-1.758-2.07.312-3.594.664-4.492 4.805-12.812 1.875-3.828 3.281-7.07 3.125-7.227-.43-.43-5.313 4.922-6.914 7.578a358.159 358.159 0 0 1-3.516 5.547c-3.945 6.055-6.445 11.953-8.477 20-.781 3.047-1.289 4.453-1.679 4.453-.86 0-.899-3.164-.157-9.765.977-8.75.821-9.141-1.718-3.907-4.024 8.282-7.266 16.797-9.649 25.196-.781 2.695-1.523 5.039-1.718 5.234-.743.742-1.25-3.125-1.055-7.5.117-2.383.117-4.375.039-4.375-.274 0-2.852 5.625-3.75 8.203-1.211 3.516-2.578 8.555-3.242 12.266-.352 1.914-.821 3.945-1.055 4.492-.547 1.406-1.445 12.188-1.484 17.617-.039 13.438-3.086 41.992-5.274 49.688-2.539 8.945-9.57 20.703-16.875 28.281-2.93 3.086-9.57 7.461-15.547 10.312-6.797 3.243-10.312 4.375-14.258 4.61-6.406.312-10.117-1.406-16.289-7.695-4.453-4.493-6.757-8.243-6.757-11.055 0-2.5.82-2.305 4.414 1.094 3.203 3.086 5.117 4.414 5.625 3.945.273-.313-1.289-4.492-3.516-9.258-1.367-2.93-1.562-3.75-1.719-7.031-.234-4.414.274-7.305 1.914-10.547 1.485-2.969 4.727-6.641 5.391-6.016.234.235.859 3.125 1.406 6.407.508 3.281 1.055 6.093 1.172 6.289.391.664 1.328.351 1.68-.547.195-.469.937-2.696 1.601-4.922.782-2.5 2.5-6.524 4.493-10.352 1.757-3.476 3.632-7.5 4.101-8.945.899-2.812 1.719-3.594 2.578-2.461.469.664 3.438 9.57 3.867 11.641.118.625.352 1.093.508 1.093.43 0 3.477-7.226 4.844-11.523 1.055-3.281 1.133-3.984 1.172-10.156.039-3.672-.078-7.383-.235-8.281-.273-1.407-.195-1.719.391-1.954.899-.312 4.688 3.633 7.344 7.696 1.797 2.695 1.953 2.851 2.305 2.031.507-1.133-.235-9.844-1.094-13.164-1.563-5.938-7.578-16.133-12.422-21.055-3.125-3.203-3.125-3.75.156-4.297 2.735-.468 7.344.196 10.508 1.524 1.328.547 2.539.898 2.695.781.586-.625-6.836-5.586-13.476-9.063-7.93-4.14-12.383-5.312-19.297-5.156-2.07.078-3.945-.039-4.219-.195-1.055-.664-.43-1.68 1.563-2.617 1.132-.508 3.046-1.68 4.296-2.617 2.461-1.758 3.438-1.954 6.563-1.211.977.234 4.57.468 8.008.507 5.664.079 6.445.157 8.359 1.016 2.383 1.055 6.367 4.492 9.961 8.516 3.086 3.476 3.555 3.554 3.164.625-.39-3.164-1.562-6.133-3.633-9.297-2.031-3.086-1.953-3.985.391-3.867 1.367.078 7.109 1.836 9.727 2.968.859.391 1.562.469 1.914.274.468-.274.273-.664-.977-1.992-3.359-3.477-8.828-6.914-14.727-9.297-.703-.274-1.093-.703-1.093-1.211 0-.977 2.812-2.383 9.375-4.61 2.383-.781 4.297-1.562 4.297-1.718 0-.157-.586-.352-1.25-.469-.704-.117-2.969-.469-5-.82-3.008-.508-4.297-.508-6.836-.196-8.907 1.25-11.368 1.289-11.797.157-.117-.313.898-1.758 2.226-3.282 1.368-1.523 2.344-2.851 2.227-3.008-.117-.117-2.578.04-5.43.313-9.57 1.016-11.484.742-23.554-3.164-4.102-1.289-6.797-1.953-8.985-2.109a812.593 812.593 0 0 1-8.398-.625c-2.891-.235-6.836-.665-8.75-1.016-2.891-.547-3.711-.859-4.844-1.914-1.25-1.094-1.406-1.524-1.563-3.594-.156-2.305-.156-2.344 1.641-4.375 1.758-1.953 1.797-2.109 1.797-4.531 0-3.984.352-4.453 4.766-6.055 2.578-.937 3.437-2.031 3.437-4.414 0-1.367-.234-1.953-1.055-2.812-1.757-1.797-5.039-3.086-7.539-3.008-1.172.039-4.765.078-8.007.078-6.563 0-8.868.469-12.11 2.422-2.344 1.406-4.492 3.398-4.492 4.101 0 .43.352.47 1.484.235.782-.157 3.399-.313 5.743-.313 3.828.04 4.492.156 6.015.977 2.5 1.406 2.735 1.992 1.524 3.593-1.289 1.72-1.758 3.36-2.032 7.149-.429 6.641-1.093 7.266-4.297 4.18-3.945-3.828-5.312-4.141-6.875-1.602-1.054 1.758-2.07 2.305-4.14 2.305-1.602 0-4.414 1.25-5.547 2.461-1.68 1.836-3.984 8.75-3.984 11.992l.039 1.758 1.523-2.891c1.836-3.437 2.93-4.687 5.508-6.094 2.422-1.328 3.516-1.093 4.883.938.937 1.484 1.133 1.562 3.593 1.836 1.641.156 3.75.078 5.547-.196 5.196-.859 5.235-.859 5.391.938.117 1.367-.039 1.719-1.133 2.617-1.055.899-1.211 1.211-1.015 2.266.156.664.898 2.265 1.64 3.554 1.524 2.579 1.68 3.516.742 4.297-.351.274-1.132 1.524-1.757 2.774-1.563 3.047-3.321 4.101-12.032 7.187-1.133.391-2.109.899-2.148 1.133-.117.977 3.086 1.445 8.555 1.25 7.187-.273 9.179-.859 11.484-3.359 1.328-1.407 2.344-2.071 3.945-2.578 3.164-1.016 4.219-1.641 4.883-2.93.977-1.875.742-3.086-.977-4.922-1.406-1.562-1.562-1.875-1.562-3.828 0-4.805.508-5.274 3.906-3.555 1.055.547 3.242 1.406 4.883 1.953 2.813.938 3.281.977 10.469.899 8.554-.117 9.648.078 14.804 2.929 4.649 2.5 10.079 6.485 10.079 7.344 0 .781-.352.938-4.493 1.524-1.484.234-6.25 1.093-10.546 1.953-6.602 1.328-8.321 1.836-11.094 3.203-4.531 2.266-6.797 4.492-8.203 7.93l-1.094 2.734-5.43.234c-6.719.313-10.742 1.25-17.304 4.102-10.313 4.453-14.883 8.359-20.079 17.148-1.406 2.383-3.164 5.274-3.945 6.446-.781 1.211-1.719 3.125-2.148 4.297-.391 1.171-2.5 6.367-4.649 11.523-10.937 26.406-12.422 29.492-18.125 38.047-5.039 7.539-12.383 16.836-15.078 19.023-5.391 4.453-14.453 9.336-20.781 11.25-9.297 2.774-17.5 2.93-25 .547-7.305-2.304-17.344-9.062-26.25-17.578-3.594-3.437-3.36-3.047-11.719-18.555-1.758-3.281-2.851-6.25-3.672-10.078-.625-2.929-.937-8.554-.469-8.984.157-.156 3.047 2.383 6.446 5.664 6.367 6.133 7.773 7.305 8.203 6.875.156-.117-.547-1.875-1.563-3.867-1.015-1.992-1.836-4.024-1.836-4.492 0-.508-.898-3.516-1.953-6.68-1.132-3.399-2.226-7.5-2.578-9.844-.859-5.586-.547-12.422.86-17.93.976-4.062 1.875-5.859 2.265-4.648.078.313.977 3.438 1.953 6.992 1.524 5.43 8.321 24.219 9.024 24.922.469.469.859-.586 1.328-3.437.273-1.602.976-5.938 1.601-9.571.625-3.672 1.524-9.062 1.954-12.031.859-5.43 1.875-9.648 5.195-21.172 1.016-3.437 1.992-6.992 2.226-7.93.235-.898.665-1.64.938-1.64.664 0 2.07 3.203 2.773 6.367.313 1.328.938 6.992 1.407 12.578.429 5.586.898 10.235.976 10.313.664.703 2.578-3.321 7.774-16.289 4.453-11.055 6.211-19.727 6.875-33.477.195-4.727.351-9.844.273-11.367-.078-2.813.352-4.063 1.445-4.063.821 0 5.391 3.711 8.164 6.641 3.79 4.023 7.188 9.492 7.852 12.578.273 1.484.82 1.367 1.133-.195 1.055-5.782 1.328-15.586.625-22.578-.508-5.079-2.383-14.493-3.945-19.883-1.055-3.594-3.477-9.024-6.446-14.453-1.172-2.149-1.25-3.516-.156-3.516 1.172 0 4.883 1.758 7.93 3.79 1.523 1.015 5.195 4.179 8.125 7.03 2.929 2.852 5.429 5.078 5.547 4.961.117-.156 0-.898-.274-1.68-.312-.78-1.172-3.437-1.992-5.898-1.953-6.133-4.531-11.289-8.789-17.773-5.703-8.633-10.469-12.93-17.422-15.82-1.68-.704-3.789-1.641-4.648-2.07-2.5-1.25-8.868-3.321-12.383-3.985-6.211-1.211-6.407-1.758-2.071-5.938 3.36-3.281 6.914-5.469 12.813-7.93 2.305-.937 4.18-1.874 4.18-2.03 0-.157-1.094-.626-2.422-1.016-2.11-.664-3.985-.782-13.399-.899-11.211-.117-12.929 0-21.562 1.64-2.227.392-4.414.743-4.922.743-1.094 0-7.422 1.64-10.586 2.734-1.289.43-2.422.782-2.578.782-1.25 0-.235-3.672 1.64-6.016l1.211-1.523-1.875.312c-3.593.508-7.656 1.758-11.64 3.477-3.438 1.484-4.063 1.68-4.531 1.21-.469-.468-.469-.742-.079-1.64 1.094-2.422 4.297-7.54 6.954-11.133 1.679-2.265 2.656-3.906 2.421-4.062-.507-.313-3.242 1.133-8.359 4.453-4.922 3.164-8.711 6.25-13.906 11.289-2.266 2.226-4.336 4.023-4.571 4.023-.82 0-.507-1.484 1.133-5.117.86-1.953 2.11-5 2.696-6.719.625-1.757 2.265-6.015 3.671-9.453 2.422-5.86 3.086-8.398 2.188-8.398-.195 0-.625.39-.898.86Zm56.718 28.79c.742.468.625.663-2.773 3.905-3.399 3.243-3.281 3.243-7.149.782-2.656-1.68-2.656-1.68 2.93-3.36 5.899-1.757 6.211-1.836 6.992-1.328Zm23.946 26.757c1.132.508 3.515 1.992 5.312 3.32 3.008 2.227 3.984 3.282 3.477 3.79-.078.117-1.993.195-4.18.195-3.164 0-4.141-.157-4.727-.664-.898-.82-3.203-6.329-2.929-7.032.273-.742.664-.703 3.047.391ZM69.413 70.132c1.21 5.82-2.5 11.562-7.11 11.054-1.796-.234-4.53-1.445-4.765-2.148-.078-.195.625-1.172 1.523-2.11.938-.976 3.242-3.476 5.157-5.546 2.148-2.383 3.71-3.79 4.101-3.711.43.078.781.86 1.094 2.46Zm146.875 26.093c1.914 6.094 3.242 11.172 3.242 12.266 0 1.094-.117 1.289-.938 1.289-1.054 0-5.234-2.344-6.289-3.515-.664-.743-.625-.938.508-4.961.664-2.344 1.406-5 1.641-5.938.508-1.992 1.055-1.758 1.836.86Zm-14.727 41.368c0 2.734-.859 6.757-1.797 8.593-.507 1.016-.703 1.094-1.132.664-.821-.859-3.711-6.328-3.711-7.07 0-.351.586-.976 1.289-1.445.664-.43 1.953-1.328 2.773-1.992 2.266-1.758 2.578-1.602 2.578 1.25Zm-26.562 27.265c0 1.289-1.602 7.344-2.149 8.086-.429.586-.586.508-1.328-.976-.43-.899-.82-1.992-.82-2.461 0-.86 1.055-2.578 2.656-4.375 1.211-1.25 1.641-1.328 1.641-.274Zm-21.328 27.422c.351 1.367.273 3.75-.157 4.024-.468.273-1.953-1.172-1.953-1.953 0-.821 1.094-2.93 1.524-2.93.195 0 .429.39.586.859Z" fill="#fff"/></g><defs><clipPath id="a"><path fill="#fff" transform="translate(0 .795)" d="M0 0h500v323.438H0z"/></clipPath></defs></svg>